<svg id="Grupo_1646" data-name="Grupo 1646" xmlns="http://www.w3.org/2000/svg" width="198.23" height="203.314" viewBox="0 0 198.23 203.314">
  <g id="Grupo_1640" data-name="Grupo 1640" transform="translate(41.927 61.617)" opacity="0.225">
    <path id="Trazado_6570" data-name="Trazado 6570" d="M2493.174-1575.694l-89.829-.081a49.042,49.042,0,0,1-4.284-20.114,49.217,49.217,0,0,1,49.217-49.217,49.217,49.217,0,0,1,49.217,49.217A49.04,49.04,0,0,1,2493.174-1575.694Z" transform="translate(-2399.061 1645.106)" fill="#fff"/>
  </g>
  <g id="Grupo_1641" data-name="Grupo 1641" transform="translate(0)">
    <path id="Trazado_6571" data-name="Trazado 6571" d="M2332.206-1890.128a29.42,29.42,0,0,0-5.18-7.1.912.912,0,0,0-.138-.143,29.951,29.951,0,0,0-10.576-6.863,27.989,27.989,0,0,0-4.459-1.268h-.008a1.273,1.273,0,0,0-1.118-.67h-17.107a3.587,3.587,0,0,0-.729-.423,46.81,46.81,0,0,1,3.038-5.293,17.346,17.346,0,0,1,6.633,3.856.759.759,0,0,0,.511.2.749.749,0,0,0,.547-.241.744.744,0,0,0-.036-1.053,18.815,18.815,0,0,0-6.776-4.04c.491-.68.992-1.324,1.5-1.948a19.765,19.765,0,0,1,9.093,5.584.292.292,0,0,0,.22.1.308.308,0,0,0,.2-.077.3.3,0,0,0,.015-.424,20.308,20.308,0,0,0-9.113-5.687c.4-.46.8-.9,1.212-1.33a24.393,24.393,0,0,1,7.441,4.516.742.742,0,0,0,.491.184.739.739,0,0,0,.563-.25.746.746,0,0,0-.066-1.054,25.7,25.7,0,0,0-7.267-4.541q1-.929,2.045-1.744a31.62,31.62,0,0,1,9.3,7.006.285.285,0,0,0,.22.1.3.3,0,0,0,.2-.077.294.294,0,0,0,.021-.419,32.049,32.049,0,0,0-9.205-7.006c.481-.358.972-.69,1.473-1.007a27.953,27.953,0,0,1,7.6,4.664.762.762,0,0,0,.486.179.743.743,0,0,0,.568-.261.746.746,0,0,0-.077-1.053,29.391,29.391,0,0,0-6.991-4.469,26.335,26.335,0,0,1,2.741-1.3,33.616,33.616,0,0,1,9.43,7.635.311.311,0,0,0,.23.1.287.287,0,0,0,.194-.072.3.3,0,0,0,.031-.419,34.245,34.245,0,0,0-9.174-7.538q1.212-.453,2.455-.787a13.579,13.579,0,0,1,7.6,5.278.749.749,0,0,0,.613.322.751.751,0,0,0,.43-.138.746.746,0,0,0,.184-1.038,15.122,15.122,0,0,0-6.06-5.022,29.29,29.29,0,0,1,4.01-.368,37.716,37.716,0,0,1,7.441,7.737.292.292,0,0,0,.246.123.293.293,0,0,0,.174-.056.3.3,0,0,0,.067-.414,38.428,38.428,0,0,0-6.97-7.4c.527.005,1.048.031,1.575.061a16.384,16.384,0,0,1,6.991,5.15.754.754,0,0,0,.588.286.757.757,0,0,0,.46-.163.747.747,0,0,0,.123-1.048,17.81,17.81,0,0,0-3.836-3.605,27.779,27.779,0,0,1,4,1.212.746.746,0,0,0,.967-.424.739.739,0,0,0-.425-.967,29.349,29.349,0,0,0-8.576-1.913.626.626,0,0,0-.194-.015,29.871,29.871,0,0,0-12.478,1.826c-7.216,2.736-12.913,8.177-17.352,16.574,1.176-9.568-.414-17.377-4.853-23.785a29.8,29.8,0,0,0-9.241-8.576.7.7,0,0,0-.169-.1,29.579,29.579,0,0,0-8.147-3.288.744.744,0,0,0-.9.557.749.749,0,0,0,.558.9,26.723,26.723,0,0,1,3.984,1.273,17.688,17.688,0,0,0-5.206.793.746.746,0,0,0-.491.936.744.744,0,0,0,.711.522.854.854,0,0,0,.225-.031,16.344,16.344,0,0,1,8.678-.276c.45.271.9.547,1.33.839a38.275,38.275,0,0,0-9.936,2.143.3.3,0,0,0-.179.383.292.292,0,0,0,.281.194.379.379,0,0,0,.1-.015,37.727,37.727,0,0,1,10.514-2.153,28.675,28.675,0,0,1,3.089,2.578,15.124,15.124,0,0,0-7.835.7.746.746,0,0,0-.44.962.755.755,0,0,0,.7.486.677.677,0,0,0,.261-.051,13.608,13.608,0,0,1,9.256-.036c.557.655,1.084,1.34,1.575,2.046a34.125,34.125,0,0,0-11.828,1,.3.3,0,0,0-.215.363.3.3,0,0,0,.292.225.4.4,0,0,0,.077-.01,33.721,33.721,0,0,1,12.1-.941,25.33,25.33,0,0,1,1.514,2.628,29.246,29.246,0,0,0-8.29-.281.754.754,0,0,0-.665.823.743.743,0,0,0,.823.66,28.027,28.027,0,0,1,8.908.47c.23.547.445,1.1.639,1.667a32.183,32.183,0,0,0-11.557.547.3.3,0,0,0-.22.358.3.3,0,0,0,.292.23.3.3,0,0,0,.066-.005,31.446,31.446,0,0,1,11.629-.5q.406,1.258.7,2.593a25.738,25.738,0,0,0-8.561-.384.748.748,0,0,0-.649.834.748.748,0,0,0,.833.649,24.332,24.332,0,0,1,8.684.5q.146.874.245,1.78a20.359,20.359,0,0,0-10.734-.481.3.3,0,0,0-.225.358.3.3,0,0,0,.358.225,19.676,19.676,0,0,1,10.658.557q.107,1.2.138,2.455a18.879,18.879,0,0,0-7.875-.516.751.751,0,0,0-.629.854.753.753,0,0,0,.849.629,17.242,17.242,0,0,1,7.656.588,49.845,49.845,0,0,1-.649,7,3.63,3.63,0,0,0-.839.4c-5.656-7.159-12.033-11.373-19.392-12.821a29.774,29.774,0,0,0-12.606.286.672.672,0,0,0-.194.046,29.394,29.394,0,0,0-8.136,3.319.747.747,0,0,0-.256,1.023.749.749,0,0,0,1.028.256,27.405,27.405,0,0,1,3.743-1.862,17.978,17.978,0,0,0-3.181,4.193.754.754,0,0,0,.3,1.018.769.769,0,0,0,.358.087.749.749,0,0,0,.66-.389,16.368,16.368,0,0,1,6.029-6.244c.511-.118,1.028-.23,1.545-.322a38.34,38.34,0,0,0-5.636,8.458.293.293,0,0,0,.133.4.313.313,0,0,0,.133.031.3.3,0,0,0,.271-.169,37.727,37.727,0,0,1,6.04-8.873,28.57,28.57,0,0,1,4.014-.3,15.107,15.107,0,0,0-5.134,5.963.748.748,0,0,0,.358.992.7.7,0,0,0,.317.072.748.748,0,0,0,.675-.424,13.617,13.617,0,0,1,6.613-6.479c.854.087,1.708.21,2.552.373a34.246,34.246,0,0,0-7.783,8.96.294.294,0,0,0,.1.409.283.283,0,0,0,.154.046.3.3,0,0,0,.256-.148,33.712,33.712,0,0,1,8.024-9.1,27.14,27.14,0,0,1,2.92.823,29.492,29.492,0,0,0-6.142,5.579.747.747,0,0,0,.1,1.053.757.757,0,0,0,.476.174.749.749,0,0,0,.578-.271,27.9,27.9,0,0,1,6.715-5.871c.542.23,1.084.481,1.616.747a32.208,32.208,0,0,0-7.906,8.448.3.3,0,0,0,.092.414.313.313,0,0,0,.158.046.3.3,0,0,0,.256-.138,31.637,31.637,0,0,1,7.993-8.464c.782.419,1.55.874,2.306,1.376a25.962,25.962,0,0,0-6.408,5.692.748.748,0,0,0,.113,1.053.743.743,0,0,0,.47.164.741.741,0,0,0,.583-.276,24.358,24.358,0,0,1,6.576-5.7c.481.358.951.721,1.422,1.11a20.434,20.434,0,0,0-6.749,5.364h-27.653a176.932,176.932,0,0,0-9.737-35.608h0a1.274,1.274,0,0,0-.261-.667l0-.012a167.74,167.74,0,0,0-9.154-19.5,62.455,62.455,0,0,1,8.165,1.363,21.743,21.743,0,0,1-1.73,9.23,1.279,1.279,0,0,0,.671,1.679,1.275,1.275,0,0,0,.5.1,1.278,1.278,0,0,0,1.176-.775,24.316,24.316,0,0,0,1.949-9.547q1.3.386,2.546.833a24.981,24.981,0,0,1-2.78,12.931.511.511,0,0,0,.215.69.51.51,0,0,0,.237.058.512.512,0,0,0,.454-.274,26.02,26.02,0,0,0,2.917-13.02c.551.214,1.1.433,1.628.666a30.587,30.587,0,0,1-2.164,10.534,1.278,1.278,0,0,0,.714,1.661,1.276,1.276,0,0,0,.473.091,1.279,1.279,0,0,0,1.188-.806,33.132,33.132,0,0,0,2.3-10.257c.861.455,1.7.934,2.5,1.446a40.064,40.064,0,0,1-4.328,13.818.511.511,0,0,0,.212.691.509.509,0,0,0,.239.06.511.511,0,0,0,.452-.272,41.117,41.117,0,0,0,4.379-13.663q.73.5,1.43,1.028a35.261,35.261,0,0,1-2.275,10.85,1.278,1.278,0,0,0,.739,1.65,1.27,1.27,0,0,0,.456.084,1.279,1.279,0,0,0,1.2-.823,37.813,37.813,0,0,0,2.3-9.754c.8.739,1.566,1.524,2.3,2.343A42.727,42.727,0,0,1,2252-1935.1a.511.511,0,0,0,.191.7.508.508,0,0,0,.253.067.511.511,0,0,0,.445-.258,43.8,43.8,0,0,0,4.993-13.743c.576.7,1.13,1.409,1.65,2.149a16.981,16.981,0,0,1-2.994,11.081,1.278,1.278,0,0,0,.308,1.782,1.271,1.271,0,0,0,.736.234,1.277,1.277,0,0,0,1.046-.542,19.548,19.548,0,0,0,3.337-8.548,36.238,36.238,0,0,1,1.733,3.878,47.98,47.98,0,0,1-5.928,11.88.511.511,0,0,0,.132.711.51.51,0,0,0,.289.09.51.51,0,0,0,.422-.222,49.005,49.005,0,0,0,5.629-10.926q.205.625.39,1.256a20.458,20.458,0,0,1-3.094,10.388,1.278,1.278,0,0,0,.407,1.762,1.272,1.272,0,0,0,.676.194,1.277,1.277,0,0,0,1.085-.6,23,23,0,0,0,2.226-4.693,34.372,34.372,0,0,1,.11,3.678,1.278,1.278,0,0,0,1.245,1.311h.033a1.279,1.279,0,0,0,1.278-1.246,37.849,37.849,0,0,0-1.42-11.173,1.261,1.261,0,0,0-.082-.294,38.3,38.3,0,0,0-7.632-14.254c-6.877-8.029-16.714-12.63-30.014-14.042,0-.009,0-.017,0-.025a5.919,5.919,0,0,0-.889-3.119q2.238-2.854,4.564-5.33a29.645,29.645,0,0,1,10.1,8.4,1.276,1.276,0,0,0,1.017.5,1.273,1.273,0,0,0,.775-.262,1.278,1.278,0,0,0,.241-1.792,32.228,32.228,0,0,0-10.277-8.754q1.53-1.509,3.1-2.863a33.729,33.729,0,0,1,13.737,12.033.511.511,0,0,0,.43.234.511.511,0,0,0,.277-.082.512.512,0,0,0,.152-.707,34.762,34.762,0,0,0-13.744-12.2q1.2-.993,2.419-1.895a41.555,41.555,0,0,1,11.258,9.74,1.276,1.276,0,0,0,1,.477,1.273,1.273,0,0,0,.8-.282,1.278,1.278,0,0,0,.194-1.8,44.082,44.082,0,0,0-10.965-9.739q1.947-1.289,3.956-2.362a54,54,0,0,1,13.668,14.484.511.511,0,0,0,.431.236.51.51,0,0,0,.275-.081.512.512,0,0,0,.155-.706,55.051,55.051,0,0,0-13.519-14.458q1.36-.686,2.748-1.278a47.819,47.819,0,0,1,11.5,10.049,1.277,1.277,0,0,0,.985.462,1.275,1.275,0,0,0,.815-.294,1.279,1.279,0,0,0,.168-1.8,50.375,50.375,0,0,0-10.525-9.552,45.766,45.766,0,0,1,5.006-1.418,57.578,57.578,0,0,1,13.727,15.589.512.512,0,0,0,.44.249.509.509,0,0,0,.262-.072.512.512,0,0,0,.177-.7,58.653,58.653,0,0,0-13.3-15.333q2.163-.418,4.359-.629a23.252,23.252,0,0,1,11.3,11.078,1.278,1.278,0,0,0,1.156.731,1.272,1.272,0,0,0,.547-.124,1.278,1.278,0,0,0,.607-1.7,25.863,25.863,0,0,0-8.781-10.2,48.947,48.947,0,0,1,6.866.52A64.619,64.619,0,0,1,2287-1974.075a.512.512,0,0,0,.46.287.513.513,0,0,0,.224-.052.512.512,0,0,0,.235-.684,65.636,65.636,0,0,0-9.64-14.468c.883.159,1.76.348,2.634.556a27.926,27.926,0,0,1,10.321,10.679,1.278,1.278,0,0,0,1.124.667,1.274,1.274,0,0,0,.611-.156,1.279,1.279,0,0,0,.511-1.734,30.491,30.491,0,0,0-5.414-7.165,46.969,46.969,0,0,1,6.38,3.176,1.278,1.278,0,0,0,1.754-.44,1.279,1.279,0,0,0-.439-1.754,50.416,50.416,0,0,0-13.917-5.675,1.267,1.267,0,0,0-.329-.08,51.01,51.01,0,0,0-21.562-.49c-12.592,2.479-23.5,9.679-33.181,21.931a5.918,5.918,0,0,0-1.44-.692,84.52,84.52,0,0,1-1.1-11.964,29.628,29.628,0,0,1,13.1-1.009,1.28,1.28,0,0,0,1.454-1.076,1.279,1.279,0,0,0-1.076-1.453,32.221,32.221,0,0,0-13.472.881q.047-2.148.229-4.214a33.722,33.722,0,0,1,18.239-.94.511.511,0,0,0,.613-.384.511.511,0,0,0-.384-.613,34.757,34.757,0,0,0-18.361.823q.167-1.546.415-3.044a41.532,41.532,0,0,1,14.862-.858,1.277,1.277,0,0,0,1.425-1.113,1.278,1.278,0,0,0-1.113-1.425,44.073,44.073,0,0,0-14.65.654q.5-2.281,1.192-4.45a54.008,54.008,0,0,1,19.9.866.515.515,0,0,0,.117.013.512.512,0,0,0,.5-.394.512.512,0,0,0-.381-.615,55.042,55.042,0,0,0-19.771-.951q.5-1.44,1.081-2.832a47.836,47.836,0,0,1,15.252-.806,1.28,1.28,0,0,0,1.408-1.133,1.278,1.278,0,0,0-1.134-1.409,50.4,50.4,0,0,0-14.2.481,45.811,45.811,0,0,1,2.6-4.505,57.586,57.586,0,0,1,20.708,1.617.5.5,0,0,0,.133.018.512.512,0,0,0,.494-.38.511.511,0,0,0-.362-.626,58.63,58.63,0,0,0-20.226-1.73q1.26-1.807,2.689-3.488a23.257,23.257,0,0,1,15.825.072,1.278,1.278,0,0,0,.447.081,1.279,1.279,0,0,0,1.2-.832,1.278,1.278,0,0,0-.751-1.645,25.873,25.873,0,0,0-13.4-1.195,49.011,49.011,0,0,1,5.288-4.411,64.621,64.621,0,0,1,17.987,3.684.507.507,0,0,0,.173.03.512.512,0,0,0,.481-.339.511.511,0,0,0-.309-.654,65.63,65.63,0,0,0-16.995-3.661c.748-.5,1.512-.981,2.286-1.442a27.928,27.928,0,0,1,14.833.475,1.277,1.277,0,0,0,.38.058,1.279,1.279,0,0,0,1.22-.9,1.279,1.279,0,0,0-.842-1.6,30.477,30.477,0,0,0-8.874-1.368,46.973,46.973,0,0,1,6.788-2.167,1.278,1.278,0,0,0,.951-1.537,1.276,1.276,0,0,0-1.537-.952,50.425,50.425,0,0,0-13.937,5.626,1.261,1.261,0,0,0-.291.171,51,51,0,0,0-15.809,14.673c-7.583,10.953-10.321,24.29-8.32,40.634-7.587-14.341-17.331-23.63-29.659-28.3a51,51,0,0,0-21.343-3.121,1.27,1.27,0,0,0-.335.024,50.4,50.4,0,0,0-14.67,3.27,1.279,1.279,0,0,0-.727,1.656,1.279,1.279,0,0,0,1.656.727,46.965,46.965,0,0,1,6.821-2.065,30.484,30.484,0,0,0-6.535,6.16,1.278,1.278,0,0,0,.214,1.8,1.271,1.271,0,0,0,.79.274,1.277,1.277,0,0,0,1.006-.488,27.929,27.929,0,0,1,11.948-8.8c.9-.059,1.8-.1,2.7-.109a65.642,65.642,0,0,0-11.922,12.654.511.511,0,0,0,.117.714.506.506,0,0,0,.3.1.511.511,0,0,0,.416-.213,64.608,64.608,0,0,1,12.726-13.235,48.956,48.956,0,0,1,6.856.635,25.871,25.871,0,0,0-10.362,8.585,1.279,1.279,0,0,0,.314,1.781,1.275,1.275,0,0,0,.732.231,1.276,1.276,0,0,0,1.048-.545,23.254,23.254,0,0,1,12.994-9.034q2.127.575,4.193,1.349a58.655,58.655,0,0,0-15.678,12.895.512.512,0,0,0,.057.721.509.509,0,0,0,.332.122.51.51,0,0,0,.389-.179,57.58,57.58,0,0,1,16.139-13.076,45.73,45.73,0,0,1,4.7,2.235,50.367,50.367,0,0,0-11.973,7.659,1.278,1.278,0,0,0-.135,1.8,1.274,1.274,0,0,0,.969.445,1.273,1.273,0,0,0,.833-.31,47.828,47.828,0,0,1,13.019-7.986q1.271.815,2.5,1.72a55.034,55.034,0,0,0-15.744,12,.511.511,0,0,0,.035.722.51.51,0,0,0,.344.133.509.509,0,0,0,.379-.168,54,54,0,0,1,15.9-12q1.8,1.4,3.505,2.99a44.093,44.093,0,0,0-12.438,7.769,1.278,1.278,0,0,0-.109,1.8,1.276,1.276,0,0,0,.957.43,1.275,1.275,0,0,0,.848-.322,41.544,41.544,0,0,1,12.728-7.722q1.052,1.1,2.068,2.272a34.763,34.763,0,0,0-15.59,9.734.511.511,0,0,0,.031.723.51.51,0,0,0,.345.134.511.511,0,0,0,.377-.166,33.718,33.718,0,0,1,15.555-9.568q1.322,1.6,2.578,3.341a32.22,32.22,0,0,0-11.6,6.913,1.279,1.279,0,0,0-.062,1.807,1.275,1.275,0,0,0,.935.406,1.275,1.275,0,0,0,.872-.344,29.638,29.638,0,0,1,11.362-6.6,82.708,82.708,0,0,1,5.186,9.059,5.965,5.965,0,0,0-3.49,4.19c-13.39-4.285-25.433-4.324-36.576-.147a51,51,0,0,0-18.093,11.742,1.263,1.263,0,0,0-.236.239,50.416,50.416,0,0,0-8.863,12.14,1.279,1.279,0,0,0,.547,1.724,1.273,1.273,0,0,0,.587.143,1.278,1.278,0,0,0,1.136-.69,46.976,46.976,0,0,1,3.761-6.053,30.489,30.489,0,0,0-.843,8.94,1.278,1.278,0,0,0,1.276,1.209l.07,0a1.278,1.278,0,0,0,1.207-1.346,27.928,27.928,0,0,1,3.165-14.5c.636-.638,1.287-1.263,1.958-1.865a65.644,65.644,0,0,0-.6,17.374.511.511,0,0,0,.508.461l.051,0a.512.512,0,0,0,.459-.559,64.612,64.612,0,0,1,.825-18.342,48.975,48.975,0,0,1,5.57-4.049,25.868,25.868,0,0,0-2.117,13.288,1.279,1.279,0,0,0,1.269,1.138,1.272,1.272,0,0,0,.142-.008,1.278,1.278,0,0,0,1.13-1.411,23.254,23.254,0,0,1,3.8-15.362q1.978-.972,4.041-1.755a58.651,58.651,0,0,0-3.267,20.035.511.511,0,0,0,.511.5h.008a.511.511,0,0,0,.5-.519,57.588,57.588,0,0,1,3.494-20.475,45.765,45.765,0,0,1,5.005-1.423,50.372,50.372,0,0,0-3.939,13.656,1.279,1.279,0,0,0,1.089,1.444,1.273,1.273,0,0,0,.179.013,1.279,1.279,0,0,0,1.265-1.1,47.828,47.828,0,0,1,4.509-14.592q1.493-.227,3.011-.356a55.047,55.047,0,0,0-3.911,19.4.512.512,0,0,0,.5.52h.009a.511.511,0,0,0,.511-.5,54.01,54.01,0,0,1,4.024-19.5q2.274-.14,4.607-.068a44.079,44.079,0,0,0-4.215,14.046,1.278,1.278,0,0,0,1.11,1.427,1.3,1.3,0,0,0,.16.01,1.279,1.279,0,0,0,1.267-1.12,41.562,41.562,0,0,1,4.464-14.2q1.514.129,3.053.342a34.763,34.763,0,0,0-5.286,17.6.512.512,0,0,0,.5.522h.011a.512.512,0,0,0,.511-.5,33.717,33.717,0,0,1,5.369-17.455q2.047.327,4.142.808a32.208,32.208,0,0,0-4.147,12.847,1.278,1.278,0,0,0,1.146,1.4c.043,0,.085.006.128.006a1.278,1.278,0,0,0,1.271-1.152,29.644,29.644,0,0,1,4.181-12.455q2.02.546,4.084,1.228a5.937,5.937,0,0,0,1.218,2.422c-9.833,8.583-15.157,17.815-16.25,28.154a38.2,38.2,0,0,0,1.5,15.127.773.773,0,0,1,.474.036,17.654,17.654,0,0,1,2.5,1.156c.289.122.581.236.875.346-.4-.462-.783-.941-1.142-1.439q-.207-.624-.391-1.256a48.985,48.985,0,0,0,10.833,5.807.505.505,0,0,0,.183.034.512.512,0,0,0,.478-.329.511.511,0,0,0-.295-.66,47.985,47.985,0,0,1-11.62-6.423,36.174,36.174,0,0,1-.772-4.177,19.541,19.541,0,0,0,7.6,5.149,1.276,1.276,0,0,0,.443.079,1.279,1.279,0,0,0,1.2-.836,1.279,1.279,0,0,0-.757-1.642,16.979,16.979,0,0,1-8.75-7.43c.009-.9.061-1.806.141-2.705a43.8,43.8,0,0,0,11.905,8.488.509.509,0,0,0,.222.051.511.511,0,0,0,.461-.289.512.512,0,0,0-.239-.683,42.734,42.734,0,0,1-12.211-8.9q.209-1.631.573-3.225a37.829,37.829,0,0,0,7.427,6.733,1.271,1.271,0,0,0,.724.225,1.276,1.276,0,0,0,1.054-.553,1.279,1.279,0,0,0-.328-1.778,35.265,35.265,0,0,1-8.033-7.655q.275-.834.593-1.659a41.121,41.121,0,0,0,11.363,8.78.509.509,0,0,0,.236.058.511.511,0,0,0,.454-.275.512.512,0,0,0-.217-.69,40.062,40.062,0,0,1-11.4-8.931q.561-1.319,1.239-2.615a33.144,33.144,0,0,0,7.716,7.154,1.273,1.273,0,0,0,.709.215,1.277,1.277,0,0,0,1.064-.569,1.279,1.279,0,0,0-.354-1.773,30.6,30.6,0,0,1-7.756-7.449c.306-.494.628-.986.961-1.476a26.015,26.015,0,0,0,9.789,9.073.508.508,0,0,0,.238.059.511.511,0,0,0,.453-.273.511.511,0,0,0-.214-.691,24.976,24.976,0,0,1-9.627-9.082q.769-1.072,1.624-2.13a24.327,24.327,0,0,0,7.025,6.767,1.273,1.273,0,0,0,.681.2,1.278,1.278,0,0,0,1.082-.6,1.278,1.278,0,0,0-.4-1.763,21.734,21.734,0,0,1-6.662-6.626,61.993,61.993,0,0,1,5.682-5.523,5.9,5.9,0,0,0,1.6.477s0,0,0,.007a1.163,1.163,0,0,0,.092.286,157.811,157.811,0,0,1,14.042,52.156h-98.29a1.263,1.263,0,0,0-.4.071v0a86.757,86.757,0,0,1-1.273-14.861,86.616,86.616,0,0,1,32.883-68.123,1.276,1.276,0,0,0,.2-1.8,1.277,1.277,0,0,0-1.795-.2,89.157,89.157,0,0,0-33.849,70.123,89.657,89.657,0,0,0,89.551,89.556c.762,0,1.519-.01,2.276-.031.936-.021,1.866-.056,2.8-.113a89.467,89.467,0,0,0,13.24-1.718c.946-.194,1.877-.4,2.808-.624h.005a88.366,88.366,0,0,0,31-14.191c.476-.338.946-.685,1.412-1.033.077-.056.148-.113.225-.174.46-.343.916-.7,1.371-1.053q1.657-1.3,3.257-2.68c.476-.409.946-.823,1.411-1.248a90.409,90.409,0,0,0,11.179-12.079,1.273,1.273,0,0,0-.235-1.79,1.273,1.273,0,0,0-1.79.23,88.636,88.636,0,0,1-9.307,10.31q-.084-2.984.015-5.978l.031-.961a92.73,92.73,0,0,1,8.53-35.235.737.737,0,0,0,.056-.169,3.387,3.387,0,0,0,.931-.281,36.459,36.459,0,0,1,3.324,3.232,12.714,12.714,0,0,1-3.892,3.871.748.748,0,0,0-.235,1.033.747.747,0,0,0,.634.348.733.733,0,0,0,.4-.118,14.228,14.228,0,0,0,4.1-3.948c.332.409.649.823.946,1.243a14.64,14.64,0,0,1-5.62,5.308.3.3,0,0,0-.128.4.311.311,0,0,0,.266.158.268.268,0,0,0,.138-.036,15.2,15.2,0,0,0,5.722-5.3c.194.286.384.573.563.864a17.89,17.89,0,0,1-4.531,4.352.745.745,0,0,0-.209,1.038.751.751,0,0,0,.624.332.732.732,0,0,0,.414-.128,19.351,19.351,0,0,0,4.505-4.178c.266.506.506,1.013.726,1.529a23.325,23.325,0,0,1-6.663,5.216.3.3,0,0,0-.128.4.3.3,0,0,0,.266.164.279.279,0,0,0,.138-.036,24.049,24.049,0,0,0,6.638-5.129c.123.322.24.639.343.962a20.425,20.425,0,0,1-4.689,4.48.747.747,0,0,0-.189,1.038.749.749,0,0,0,.614.327.756.756,0,0,0,.425-.133,22.236,22.236,0,0,0,4.342-3.938c.143.624.25,1.253.332,1.892a25.029,25.029,0,0,1-7.134,5.2.3.3,0,0,0-.143.4.309.309,0,0,0,.271.174.316.316,0,0,0,.133-.031,25.573,25.573,0,0,0,6.955-4.966c.052.527.082,1.053.087,1.58a9.931,9.931,0,0,1-5.119,4.347.75.75,0,0,0-.44.961.743.743,0,0,0,.7.486.781.781,0,0,0,.261-.046,11.382,11.382,0,0,0,4.439-3.022,22.272,22.272,0,0,1-.45,2.455,27.99,27.99,0,0,1-6.8,3.754.3.3,0,0,0-.169.389.3.3,0,0,0,.276.189.384.384,0,0,0,.107-.016,28.677,28.677,0,0,0,6.331-3.4c-.071.246-.143.491-.225.731a11.983,11.983,0,0,1-4.935,3.979.747.747,0,0,0-.389.982.75.75,0,0,0,.685.45.752.752,0,0,0,.3-.061,13.447,13.447,0,0,0,2.629-1.524,19.82,19.82,0,0,1-1.166,1.81.75.75,0,0,0,.164,1.043.741.741,0,0,0,.44.143.744.744,0,0,0,.6-.307,21.982,21.982,0,0,0,3.022-5.85.726.726,0,0,0,.056-.169,22.374,22.374,0,0,0,1.053-9.394c-.639-6.045-3.754-11.445-9.5-16.462a3.478,3.478,0,0,0,.711-1.411c.808-.271,1.606-.5,2.393-.716a17.319,17.319,0,0,1,2.439,7.277.753.753,0,0,0,.747.675c.021,0,.046-.005.072-.005a.747.747,0,0,0,.67-.818,18.8,18.8,0,0,0-2.4-7.461h2.716a19.678,19.678,0,0,1,2.818,9.681.3.3,0,0,0,.3.3h0a.3.3,0,0,0,.292-.307,20.361,20.361,0,0,0-2.716-9.671h1.821a24.122,24.122,0,0,1,2.2,7.482.753.753,0,0,0,.741.655.652.652,0,0,0,.1-.005.74.74,0,0,0,.644-.833,25.77,25.77,0,0,0-2.03-7.3h2.6a31.6,31.6,0,0,1,2.01,10.525.3.3,0,0,0,.3.3h.005a.3.3,0,0,0,.292-.307,32.085,32.085,0,0,0-1.979-10.514h1.749a28.046,28.046,0,0,1,2.342,7.911.748.748,0,0,0,.737.644.738.738,0,0,0,.107-.005.748.748,0,0,0,.634-.844,29.373,29.373,0,0,0-2.3-7.978,27.426,27.426,0,0,1,2.915.834,33.625,33.625,0,0,1,2.051,11.962.294.294,0,0,0,.292.3h.005a.3.3,0,0,0,.3-.3,34.289,34.289,0,0,0-1.918-11.716q1.212.46,2.368,1.028a13.593,13.593,0,0,1,2.225,8.985.746.746,0,0,0,.66.823.468.468,0,0,0,.082.005.751.751,0,0,0,.747-.665,15.144,15.144,0,0,0-1.243-7.768,28.448,28.448,0,0,1,3.258,2.368,37.7,37.7,0,0,1,.481,10.724.3.3,0,0,0,.271.322.066.066,0,0,0,.031.005.3.3,0,0,0,.3-.271,38.6,38.6,0,0,0-.353-10.156c.389.348.767.711,1.14,1.084a16.287,16.287,0,0,1,1.851,8.479.749.749,0,0,0,.706.788c.015,0,.031.005.041.005a.751.751,0,0,0,.747-.711,17.867,17.867,0,0,0-.5-5.242,28.008,28.008,0,0,1,2.209,3.554.75.75,0,0,0,.665.4.767.767,0,0,0,.343-.082A.751.751,0,0,0,2332.206-1890.128Zm-46.312-18.2c.644.68,1.272,1.4,1.9,2.152h-5.158A17.242,17.242,0,0,1,2285.894-1908.323ZM2283-1911.1c.609.522,1.212,1.079,1.805,1.662a19.011,19.011,0,0,0-4.381,3.267h-3.887A19.758,19.758,0,0,1,2283-1911.1Zm-36.115,14.4a173.7,173.7,0,0,1,1.023,21.576v.006a14.883,14.883,0,0,1-8.893,2.183,164.786,164.786,0,0,0,.92-22.577,10.191,10.191,0,0,0,1.736.151,11.193,11.193,0,0,0,5.213-1.344Zm-3.938-22.276a172.66,172.66,0,0,1,3.615,19.561h0a1.267,1.267,0,0,0-.295.125,8.313,8.313,0,0,1-6.431,1.14q-.138-3.323-.419-6.635c0-.007,0-.013,0-.02,0-.03.009-.058.009-.089a1.27,1.27,0,0,0-.042-.311v0q-.514-6-1.468-11.946v0a8.206,8.206,0,0,0,5.031-1.822Zm-17.668-39.847a5.931,5.931,0,0,0,1.491-.713l.06.026a1.267,1.267,0,0,0,.591.108,167.026,167.026,0,0,1,8.192,17.51h0a4.66,4.66,0,0,1-3.226,1.388A153.908,153.908,0,0,0,2225.283-1958.823Zm7.885,20.838v0a7.342,7.342,0,0,0,3.428-1.388l0,.01a171.272,171.272,0,0,1,5.625,17.505s0,0,0,.005h0a1.291,1.291,0,0,0-.1.1,5.6,5.6,0,0,1-4.638,2.031v0A161.553,161.553,0,0,0,2233.168-1937.984Zm-60.37,87.48c-14.033-11.409-28.136-25.948-34.284-53.109h89.568c-8.1,3.948-15.908,11.794-18.09,22.915-.037.191-.7,5.187-.847,6.938-.8,9.424-3.063,17.976-16.872,22.5-6.3,1.689-13.07,1.377-19.468.764C2172.8-1850.5,2172.8-1850.5,2172.8-1850.5Zm54.264,16.477q-1.642.061-3.293.061a86.454,86.454,0,0,1-46.7-13.629l-.006,0c1.5.089,3,.146,4.514.146a43.753,43.753,0,0,0,11.359-1.342c7.57-2.03,13.687-6.815,16.362-12.8,1.7-3.806,2.054-7.946,2.4-11.949a62.388,62.388,0,0,1,.808-6.662,30.5,30.5,0,0,1,23.926-23.408h.526a162.214,162.214,0,0,1-.6,31.512v.009c-.006.026-.016.051-.021.078a1.258,1.258,0,0,0-.009.157c0,.012,0,.025,0,.038v.01A157.14,157.14,0,0,1,2227.062-1834.028Zm17.9-11.844q-.928,4.94-2.163,9.829a86.353,86.353,0,0,1-12.954,1.867q2.255-6.006,4-12.181l0-.01a13.227,13.227,0,0,0,6.094,1.474,13.194,13.194,0,0,0,5.022-.983Zm.563-3.14a1.288,1.288,0,0,0-.191.092,10.64,10.64,0,0,1-10.788.024,161.318,161.318,0,0,0,4.172-21.5q.679.054,1.359.054a17.521,17.521,0,0,0,7.765-1.826h0a171.881,171.881,0,0,1-2.317,23.151Zm30.275-2.179a85.941,85.941,0,0,1-30.2,14.483,174.01,174.01,0,0,0,4.782-37.163v-.008a1.271,1.271,0,0,0,.02-1.149s0-.009,0-.014a176.347,176.347,0,0,0-1.135-22.824q-.33-2.876-.762-5.748h30.2a.7.7,0,0,0,.245.343.737.737,0,0,0,.45.153.753.753,0,0,0,.6-.3c.051-.067.1-.133.158-.2h7.9a1.62,1.62,0,0,0-.01.225.018.018,0,0,0,.005.015c-7.778.829-13.531,3.519-17.551,8.208a22.391,22.391,0,0,0-4.459,8.336.615.615,0,0,0-.051.174,22.174,22.174,0,0,0-.829,6.531.747.747,0,0,0,.747.726h.021a.744.744,0,0,0,.726-.767,21.471,21.471,0,0,1,.067-2.148,13.436,13.436,0,0,0,1.3,2.741.747.747,0,0,0,.634.353.747.747,0,0,0,.4-.113.751.751,0,0,0,.235-1.033,11.917,11.917,0,0,1-1.805-6.07c.066-.245.143-.491.225-.736a28.629,28.629,0,0,0,3.293,6.387.289.289,0,0,0,.246.133.3.3,0,0,0,.169-.056.3.3,0,0,0,.077-.414,28.1,28.1,0,0,1-3.467-6.945,21.02,21.02,0,0,1,1.023-2.281,11.417,11.417,0,0,0,1.943,5.012.743.743,0,0,0,.609.317.742.742,0,0,0,.43-.138.746.746,0,0,0,.184-1.038,9.919,9.919,0,0,1-1.749-6.484c.3-.43.624-.849.961-1.253a25.525,25.525,0,0,0,2.92,8.034.3.3,0,0,0,.261.153.3.3,0,0,0,.143-.041.3.3,0,0,0,.113-.409,25.073,25.073,0,0,1-2.925-8.326c.429-.481.875-.936,1.345-1.371a21.909,21.909,0,0,0,1.345,5.7.737.737,0,0,0,.7.481.811.811,0,0,0,.266-.046.753.753,0,0,0,.435-.967,20.586,20.586,0,0,1-1.33-6.341c.271-.21.547-.409.833-.6a24.09,24.09,0,0,0,2.562,7.988.288.288,0,0,0,.261.159.284.284,0,0,0,.143-.036.3.3,0,0,0,.123-.4,23.368,23.368,0,0,1-2.531-8.075c.47-.3.962-.583,1.463-.849a19.415,19.415,0,0,0,1.345,6,.751.751,0,0,0,.7.47.754.754,0,0,0,.276-.051.753.753,0,0,0,.419-.972,17.839,17.839,0,0,1-1.268-6.157c.312-.138.634-.266.956-.394a15.141,15.141,0,0,0,1.7,7.615.3.3,0,0,0,.266.159.277.277,0,0,0,.138-.036.3.3,0,0,0,.123-.4,14.616,14.616,0,0,1-1.621-7.558c.486-.174.977-.338,1.488-.486a14.119,14.119,0,0,0,1.135,5.579.748.748,0,0,0,.69.455.728.728,0,0,0,.292-.061.749.749,0,0,0,.394-.982,12.687,12.687,0,0,1-1.012-5.4,36.491,36.491,0,0,1,4.776-.8,98.4,98.4,0,0,0-5.354,11.4.746.746,0,0,0-.153.409,103.392,103.392,0,0,0-6.372,25.657A103.2,103.2,0,0,0,2275.8-1851.19Zm1.447-1.11a101.956,101.956,0,0,1,.609-11.45,6.917,6.917,0,0,0,3.094.731,6.886,6.886,0,0,0,.972-.072c-.062,2.276-.051,4.546.046,6.817Q2279.677-1854.195,2277.251-1852.3Zm4.72-12.314a5.392,5.392,0,0,1-3.759-.644.511.511,0,0,0-.164-.072,100.933,100.933,0,0,1,2.107-11.44,4.8,4.8,0,0,0,2.946,1.064A97.174,97.174,0,0,0,2281.971-1864.614Zm1.381-12.591a3.271,3.271,0,0,1-2.716-1.192.567.567,0,0,0-.056-.056,100.682,100.682,0,0,1,3.293-10.243,4.311,4.311,0,0,0,2.01.813A93.832,93.832,0,0,0,2283.352-1877.2Zm2.981-12.151a2.7,2.7,0,0,1-1.892-.813,98.513,98.513,0,0,1,4.8-10.233.713.713,0,0,0,.337-.066.237.237,0,0,0,.036-.015,3.445,3.445,0,0,0,.875.419A90.323,90.323,0,0,0,2286.333-1889.356Z" transform="translate(-2134.139 2034.644)" fill="#fff"/>
    <path id="Trazado_6572" data-name="Trazado 6572" d="M2223.348-1831.749a89.734,89.734,0,0,1-89.63-89.635,89.232,89.232,0,0,1,33.879-70.185,1.344,1.344,0,0,1,1-.286,1.35,1.35,0,0,1,.908.5,1.349,1.349,0,0,1,.286,1,1.338,1.338,0,0,1-.5.9,86.538,86.538,0,0,0-32.853,68.061,87.009,87.009,0,0,0,1.257,14.763,1.273,1.273,0,0,1,.341-.048h98.2a156.994,156.994,0,0,0-14.028-52.044,1.335,1.335,0,0,1-.089-.258,5.991,5.991,0,0,1-1.521-.454,62.3,62.3,0,0,0-5.6,5.438,21.687,21.687,0,0,0,6.6,6.551,1.347,1.347,0,0,1,.6.849,1.347,1.347,0,0,1-.176,1.024,1.352,1.352,0,0,1-1.149.633,1.354,1.354,0,0,1-.723-.21,24.5,24.5,0,0,1-6.988-6.7c-.529.656-1.041,1.329-1.524,2a25.066,25.066,0,0,0,9.57,9.009.587.587,0,0,1,.289.348.587.587,0,0,1-.042.45.589.589,0,0,1-.523.315.591.591,0,0,1-.275-.068,25.95,25.95,0,0,1-9.754-9c-.322.476-.6.911-.864,1.328a30.528,30.528,0,0,0,7.705,7.386,1.349,1.349,0,0,1,.578.864,1.35,1.35,0,0,1-.2,1.019,1.356,1.356,0,0,1-1.13.6,1.352,1.352,0,0,1-.752-.229,33.264,33.264,0,0,1-7.659-7.074c-.418.8-.808,1.63-1.16,2.455a40.1,40.1,0,0,0,11.349,8.876.591.591,0,0,1,.251.8.588.588,0,0,1-.524.318.592.592,0,0,1-.272-.067,41.358,41.358,0,0,1-11.3-8.7c-.185.483-.364.986-.533,1.5a35.213,35.213,0,0,0,7.99,7.6,1.359,1.359,0,0,1,.348,1.888,1.357,1.357,0,0,1-1.119.587,1.349,1.349,0,0,1-.769-.239,37.969,37.969,0,0,1-7.34-6.626c-.222.992-.4,2.009-.532,3.026a42.758,42.758,0,0,0,12.162,8.857.591.591,0,0,1,.275.788.593.593,0,0,1-.532.334.594.594,0,0,1-.256-.058,44.071,44.071,0,0,1-11.807-8.384c-.076.9-.117,1.72-.126,2.509a16.928,16.928,0,0,0,8.7,7.377,1.359,1.359,0,0,1,.8,1.744,1.363,1.363,0,0,1-1.274.888,1.357,1.357,0,0,1-.47-.084,19.565,19.565,0,0,1-7.459-4.988,36.384,36.384,0,0,0,.733,3.9,47.952,47.952,0,0,0,11.578,6.4.586.586,0,0,1,.328.311.585.585,0,0,1,.012.451.593.593,0,0,1-.551.379.584.584,0,0,1-.211-.04,49.137,49.137,0,0,1-10.664-5.686c.107.358.213.695.322,1.024.343.475.724.954,1.131,1.424l.2.234-.291-.109c-.322-.12-.609-.234-.878-.347a17.6,17.6,0,0,0-2.5-1.155.7.7,0,0,0-.427-.033l-.073.018-.022-.071a38.479,38.479,0,0,1-1.5-15.158c1.094-10.356,6.4-19.566,16.219-28.154a6.049,6.049,0,0,1-1.175-2.352c-1.313-.434-2.651-.837-3.981-1.2a29.573,29.573,0,0,0-4.14,12.371,1.356,1.356,0,0,1-1.485,1.217,1.35,1.35,0,0,1-.916-.49,1.349,1.349,0,0,1-.3-.995,32.369,32.369,0,0,1,4.1-12.786c-1.343-.306-2.681-.566-3.982-.775a33.827,33.827,0,0,0-5.329,17.37.594.594,0,0,1-.59.578.593.593,0,0,1-.59-.6,35.084,35.084,0,0,1,5.233-17.539c-.937-.129-1.9-.237-2.876-.321a41.489,41.489,0,0,0-4.431,14.128,1.358,1.358,0,0,1-1.516,1.178,1.348,1.348,0,0,1-.9-.514,1.348,1.348,0,0,1-.275-1,44.192,44.192,0,0,1,4.169-13.961c-1.48-.043-2.969-.021-4.428.068a54.045,54.045,0,0,0-4,19.43.593.593,0,0,1-.59.581.594.594,0,0,1-.591-.6,55.284,55.284,0,0,1,3.869-19.312c-.963.085-1.916.2-2.837.338a47.771,47.771,0,0,0-4.483,14.531,1.363,1.363,0,0,1-1.343,1.169,1.335,1.335,0,0,1-.19-.013,1.359,1.359,0,0,1-1.156-1.533,50.509,50.509,0,0,1,3.881-13.533,45.9,45.9,0,0,0-4.807,1.373,57.6,57.6,0,0,0-3.476,20.412.591.591,0,0,1-.582.6.594.594,0,0,1-.6-.582,58.9,58.9,0,0,1,3.216-19.9c-1.3.5-2.6,1.064-3.857,1.682a23.2,23.2,0,0,0-3.773,15.292,1.35,1.35,0,0,1-.289,1,1.349,1.349,0,0,1-.91.5,1.354,1.354,0,0,1-1.5-1.2,26.119,26.119,0,0,1,2.02-13.093,49.1,49.1,0,0,0-5.321,3.887,64.584,64.584,0,0,0-.819,18.292.591.591,0,0,1-.53.645.586.586,0,0,1-.645-.53,65.77,65.77,0,0,1,.567-17.172c-.57.517-1.153,1.076-1.778,1.7a27.868,27.868,0,0,0-3.15,14.447,1.349,1.349,0,0,1-.345.98,1.349,1.349,0,0,1-.937.449l-.074,0a1.357,1.357,0,0,1-1.354-1.284,30.522,30.522,0,0,1,.752-8.575,46.871,46.871,0,0,0-3.521,5.72,1.353,1.353,0,0,1-1.206.733,1.345,1.345,0,0,1-.624-.152,1.36,1.36,0,0,1-.581-1.83,50.385,50.385,0,0,1,8.877-12.159,1.3,1.3,0,0,1,.244-.247,51.225,51.225,0,0,1,18.113-11.754c11.187-4.193,23.141-4.154,36.546.12a6.044,6.044,0,0,1,3.44-4.128,83.046,83.046,0,0,0-5.112-8.927,29.564,29.564,0,0,0-11.275,6.562,1.354,1.354,0,0,1-.926.365,1.362,1.362,0,0,1-.993-.431,1.359,1.359,0,0,1,.066-1.919,32.376,32.376,0,0,1,11.523-6.9c-.808-1.117-1.642-2.2-2.479-3.211a33.828,33.828,0,0,0-15.469,9.532.592.592,0,0,1-.435.191.59.59,0,0,1-.4-.155.587.587,0,0,1-.191-.41.587.587,0,0,1,.155-.425,35.087,35.087,0,0,1,15.509-9.722c-.619-.716-1.274-1.435-1.949-2.139a41.48,41.48,0,0,0-12.655,7.688,1.356,1.356,0,0,1-.9.341,1.358,1.358,0,0,1-1.017-.457,1.347,1.347,0,0,1-.339-.982,1.35,1.35,0,0,1,.455-.934,44.2,44.2,0,0,1,12.347-7.736c-1.084-1.01-2.218-1.975-3.371-2.871a54.032,54.032,0,0,0-15.829,11.956.591.591,0,0,1-.437.194.589.589,0,0,1-.4-.153.591.591,0,0,1-.04-.834,55.278,55.278,0,0,1,15.653-11.955c-.779-.571-1.57-1.115-2.354-1.619a47.764,47.764,0,0,0-12.959,7.957,1.358,1.358,0,0,1-.885.329,1.356,1.356,0,0,1-1.029-.472,1.348,1.348,0,0,1-.325-.987,1.347,1.347,0,0,1,.468-.927,50.5,50.5,0,0,1,11.848-7.605,45.875,45.875,0,0,0-4.518-2.141,57.589,57.589,0,0,0-16.084,13.04.591.591,0,0,1-.449.207.591.591,0,0,1-.383-.141.585.585,0,0,1-.205-.4.585.585,0,0,1,.139-.43,58.909,58.909,0,0,1,15.552-12.829c-1.306-.484-2.653-.915-4.006-1.281a23.194,23.194,0,0,0-12.929,9,1.359,1.359,0,0,1-1.113.579,1.351,1.351,0,0,1-.777-.245,1.359,1.359,0,0,1-.333-1.891,26.122,26.122,0,0,1,10.16-8.5,49.112,49.112,0,0,0-6.563-.592,64.578,64.578,0,0,0-12.688,13.2.592.592,0,0,1-.48.246.586.586,0,0,1-.344-.111.586.586,0,0,1-.239-.383.588.588,0,0,1,.1-.44,65.79,65.79,0,0,1,11.761-12.525c-.768.013-1.575.047-2.458.1a27.868,27.868,0,0,0-11.9,8.774,1.35,1.35,0,0,1-1.068.518,1.343,1.343,0,0,1-.838-.291,1.347,1.347,0,0,1-.508-.906,1.347,1.347,0,0,1,.281-1,30.528,30.528,0,0,1,6.226-5.945,46.877,46.877,0,0,0-6.421,1.973,1.348,1.348,0,0,1-1.038-.022,1.348,1.348,0,0,1-.719-.75,1.348,1.348,0,0,1,.022-1.039,1.349,1.349,0,0,1,.75-.719,50.359,50.359,0,0,1,14.693-3.275,1.3,1.3,0,0,1,.346-.024,51.229,51.229,0,0,1,21.366,3.126c12.272,4.651,21.926,13.8,29.5,27.966-1.908-16.191.836-29.366,8.384-40.269a51.255,51.255,0,0,1,15.833-14.7,1.3,1.3,0,0,1,.3-.175,50.345,50.345,0,0,1,13.95-5.63,1.36,1.36,0,0,1,1.633,1.01,1.349,1.349,0,0,1-.167,1.026,1.348,1.348,0,0,1-.843.607,46.9,46.9,0,0,0-6.406,2.016,30.517,30.517,0,0,1,8.5,1.366,1.359,1.359,0,0,1,.894,1.7,1.351,1.351,0,0,1-1.3.955,1.355,1.355,0,0,1-.4-.061,27.865,27.865,0,0,0-14.78-.477c-.76.453-1.444.882-2.084,1.308a65.783,65.783,0,0,1,16.789,3.647.586.586,0,0,1,.335.3.586.586,0,0,1,.021.451.592.592,0,0,1-.556.391.582.582,0,0,1-.2-.035,64.6,64.6,0,0,0-17.937-3.678,49.138,49.138,0,0,0-5.071,4.21,26.129,26.129,0,0,1,13.191,1.242,1.349,1.349,0,0,1,.76.708,1.348,1.348,0,0,1,.036,1.038,1.363,1.363,0,0,1-1.271.883,1.352,1.352,0,0,1-.475-.086,23.2,23.2,0,0,0-15.751-.079c-.907,1.07-1.772,2.189-2.573,3.328a58.886,58.886,0,0,1,20.084,1.747.591.591,0,0,1,.417.723.591.591,0,0,1-.57.438.592.592,0,0,1-.154-.02,57.6,57.6,0,0,0-20.642-1.619,45.92,45.92,0,0,0-2.507,4.326,50.523,50.523,0,0,1,14.072-.455,1.348,1.348,0,0,1,.912.5,1.348,1.348,0,0,1,.292,1,1.35,1.35,0,0,1-.5.914,1.338,1.338,0,0,1-.993.29,47.77,47.77,0,0,0-15.186.8c-.36.858-.7,1.755-1.021,2.668a55.289,55.289,0,0,1,19.672.97.591.591,0,0,1,.44.71.588.588,0,0,1-.574.455.594.594,0,0,1-.135-.016,54.041,54.041,0,0,0-19.818-.872c-.442,1.392-.828,2.83-1.148,4.277a44.18,44.18,0,0,1,14.556-.63,1.36,1.36,0,0,1,1.182,1.513,1.359,1.359,0,0,1-1.513,1.182,41.466,41.466,0,0,0-14.783.844c-.157.961-.288,1.925-.392,2.867a35.082,35.082,0,0,1,18.286-.788.587.587,0,0,1,.368.262.586.586,0,0,1,.075.446.591.591,0,0,1-.708.443,33.834,33.834,0,0,0-18.146.922c-.115,1.31-.189,2.672-.222,4.05a32.375,32.375,0,0,1,13.4-.854,1.349,1.349,0,0,1,.891.535,1.348,1.348,0,0,1,.252,1.008,1.363,1.363,0,0,1-1.543,1.142,29.555,29.555,0,0,0-13.008.989,84.944,84.944,0,0,0,1.1,11.846,6.028,6.028,0,0,1,1.352.647c9.7-12.252,20.551-19.416,33.183-21.9a51.262,51.262,0,0,1,21.6.49,1.3,1.3,0,0,1,.34.084,50.326,50.326,0,0,1,13.929,5.681,1.359,1.359,0,0,1,.467,1.862,1.348,1.348,0,0,1-.835.619,1.348,1.348,0,0,1-1.028-.152,46.9,46.9,0,0,0-6-3.018,30.537,30.537,0,0,1,5.145,6.9,1.359,1.359,0,0,1-.542,1.842,1.359,1.359,0,0,1-.648.166,1.359,1.359,0,0,1-1.193-.708,27.866,27.866,0,0,0-10.281-10.643c-.857-.2-1.643-.371-2.395-.511a65.814,65.814,0,0,1,9.5,14.315.592.592,0,0,1-.271.79.587.587,0,0,1-.259.06.587.587,0,0,1-.531-.331,64.578,64.578,0,0,0-10.3-15.136,49.073,49.073,0,0,0-6.57-.513,26.114,26.114,0,0,1,8.6,10.082,1.347,1.347,0,0,1,.052,1.037,1.348,1.348,0,0,1-.7.77,1.342,1.342,0,0,1-.581.131,1.365,1.365,0,0,1-1.228-.776,23.194,23.194,0,0,0-11.243-11.031c-1.4.136-2.8.335-4.165.594a58.905,58.905,0,0,1,13.19,15.247.586.586,0,0,1,.066.447.587.587,0,0,1-.27.363.587.587,0,0,1-.3.084.587.587,0,0,1-.507-.287,57.592,57.592,0,0,0-13.679-15.544,45.879,45.879,0,0,0-4.812,1.356,50.511,50.511,0,0,1,10.411,9.478,1.359,1.359,0,0,1-.179,1.912,1.361,1.361,0,0,1-.866.312,1.355,1.355,0,0,1-1.046-.491,47.759,47.759,0,0,0-11.448-10.011c-.857.365-1.728.77-2.591,1.2a55.293,55.293,0,0,1,13.436,14.4.592.592,0,0,1-.179.815.589.589,0,0,1-.318.093.59.59,0,0,1-.5-.272,54.024,54.024,0,0,0-13.608-14.434c-1.287.691-2.566,1.453-3.8,2.268a44.2,44.2,0,0,1,10.88,9.691,1.349,1.349,0,0,1,.292,1,1.348,1.348,0,0,1-.5.912,1.362,1.362,0,0,1-.85.3,1.352,1.352,0,0,1-1.058-.506,41.49,41.49,0,0,0-11.192-9.695c-.783.581-1.549,1.181-2.279,1.783a35.093,35.093,0,0,1,13.666,12.176.587.587,0,0,1,.081.445.588.588,0,0,1-.257.372.59.59,0,0,1-.32.094.589.589,0,0,1-.5-.27,33.837,33.837,0,0,0-13.658-11.983c-1,.859-2,1.784-2.981,2.751a32.379,32.379,0,0,1,10.208,8.725,1.347,1.347,0,0,1,.266,1,1.348,1.348,0,0,1-.522.9,1.346,1.346,0,0,1-.823.278,1.348,1.348,0,0,1-1.08-.534,29.572,29.572,0,0,0-10.02-8.353c-1.522,1.624-3.03,3.385-4.485,5.238a6.022,6.022,0,0,1,.872,3.068c13.3,1.425,23.111,6.025,29.994,14.062a38.506,38.506,0,0,1,7.648,14.283,1.293,1.293,0,0,1,.084.3,37.809,37.809,0,0,1,1.421,11.187,1.35,1.35,0,0,1-1.356,1.323h-.034a1.351,1.351,0,0,1-.951-.422,1.35,1.35,0,0,1-.373-.97c.027-1.052,0-2.16-.082-3.3a23.022,23.022,0,0,1-2.109,4.355,1.35,1.35,0,0,1-1.152.639,1.355,1.355,0,0,1-.718-.206,1.359,1.359,0,0,1-.432-1.87,20.4,20.4,0,0,0,3.082-10.336c-.1-.333-.2-.671-.315-1.026a49.164,49.164,0,0,1-5.559,10.73.59.59,0,0,1-.487.256.587.587,0,0,1-.334-.1.591.591,0,0,1-.152-.821,47.948,47.948,0,0,0,5.91-11.833,36.538,36.538,0,0,0-1.606-3.624,19.566,19.566,0,0,1-3.316,8.339,1.36,1.36,0,0,1-1.111.575,1.347,1.347,0,0,1-.781-.248,1.348,1.348,0,0,1-.555-.878,1.349,1.349,0,0,1,.228-1.014,16.925,16.925,0,0,0,2.981-11.008c-.453-.644-.954-1.3-1.526-2a44.047,44.047,0,0,1-4.971,13.6.591.591,0,0,1-.513.3.588.588,0,0,1-.292-.078.586.586,0,0,1-.277-.357.585.585,0,0,1,.057-.448,42.754,42.754,0,0,0,4.992-14.179c-.732-.816-1.438-1.538-2.152-2.2a37.957,37.957,0,0,1-2.288,9.617,1.366,1.366,0,0,1-1.269.874,1.344,1.344,0,0,1-.484-.09,1.348,1.348,0,0,1-.755-.714,1.348,1.348,0,0,1-.029-1.038,35.2,35.2,0,0,0,2.267-10.785c-.406-.308-.839-.62-1.288-.928a41.367,41.367,0,0,1-4.37,13.563.59.59,0,0,1-.522.314.593.593,0,0,1-.276-.069.588.588,0,0,1-.288-.348.587.587,0,0,1,.043-.45,40.1,40.1,0,0,0,4.313-13.742c-.724-.458-1.513-.914-2.348-1.358a33.257,33.257,0,0,1-2.295,10.159,1.351,1.351,0,0,1-1.261.855,1.353,1.353,0,0,1-.5-.1,1.349,1.349,0,0,1-.744-.725,1.348,1.348,0,0,1-.014-1.039,30.52,30.52,0,0,0,2.157-10.453c-.51-.222-1.019-.426-1.464-.6a25.953,25.953,0,0,1-2.931,12.939.589.589,0,0,1-.523.316.593.593,0,0,1-.274-.067.591.591,0,0,1-.249-.8,25.07,25.07,0,0,0,2.774-12.837c-.77-.276-1.573-.54-2.391-.784a24.494,24.494,0,0,1-1.955,9.473,1.356,1.356,0,0,1-1.248.823,1.351,1.351,0,0,1-.535-.11,1.359,1.359,0,0,1-.713-1.782,21.7,21.7,0,0,0,1.726-9.136,62.623,62.623,0,0,0-7.945-1.332,168.369,168.369,0,0,1,9.085,19.377,1.348,1.348,0,0,1,.27.691,176.889,176.889,0,0,1,9.726,35.546H2275.3a20.561,20.561,0,0,1,6.642-5.3c-.389-.319-.8-.639-1.282-1a24.289,24.289,0,0,0-6.51,5.651.823.823,0,0,1-.645.306.823.823,0,0,1-.52-.181.824.824,0,0,1-.3-.557.82.82,0,0,1,.18-.608,26.067,26.067,0,0,1,6.323-5.644c-.688-.451-1.412-.882-2.155-1.281a31.636,31.636,0,0,0-7.933,8.413.388.388,0,0,1-.521.117.386.386,0,0,1-.118-.524,32.377,32.377,0,0,1,7.823-8.393c-.482-.238-.972-.464-1.459-.671a27.826,27.826,0,0,0-6.661,5.832.827.827,0,0,1-.639.3.837.837,0,0,1-.526-.192.828.828,0,0,1-.108-1.166,29.618,29.618,0,0,1,6.027-5.5,27.219,27.219,0,0,0-2.726-.762,33.7,33.7,0,0,0-7.976,9.058.384.384,0,0,1-.323.187.359.359,0,0,1-.2-.059.362.362,0,0,1-.169-.225.375.375,0,0,1,.043-.291,34.4,34.4,0,0,1,7.67-8.873c-.759-.142-1.551-.256-2.357-.338a13.546,13.546,0,0,0-6.554,6.432.832.832,0,0,1-.746.47.779.779,0,0,1-.352-.08.813.813,0,0,1-.422-.465.816.816,0,0,1,.028-.632,15.063,15.063,0,0,1,4.95-5.848,28.581,28.581,0,0,0-3.719.295,37.687,37.687,0,0,0-6.008,8.833.375.375,0,0,1-.507.176.37.37,0,0,1-.194-.219.368.368,0,0,1,.023-.289,38.466,38.466,0,0,1,5.5-8.3c-.481.091-.943.194-1.307.278a16.306,16.306,0,0,0-5.99,6.208.832.832,0,0,1-.729.43.845.845,0,0,1-.394-.1.833.833,0,0,1-.329-1.126,17.992,17.992,0,0,1,2.915-3.931,27.356,27.356,0,0,0-3.368,1.7.832.832,0,0,1-1.136-.283.828.828,0,0,1-.092-.625.813.813,0,0,1,.375-.506,29.424,29.424,0,0,1,8.158-3.328.71.71,0,0,1,.207-.048,29.927,29.927,0,0,1,12.627-.285c7.38,1.452,13.725,5.636,19.395,12.793a3.717,3.717,0,0,1,.75-.359,50.121,50.121,0,0,0,.64-6.878,17.176,17.176,0,0,0-7.564-.568.835.835,0,0,1-.939-.7.826.826,0,0,1,.153-.616.821.821,0,0,1,.543-.328,19,19,0,0,1,7.806.49c-.021-.774-.065-1.544-.13-2.292a19.725,19.725,0,0,0-10.566-.539.384.384,0,0,1-.289-.05.371.371,0,0,1-.164-.235.383.383,0,0,1,.05-.288.371.371,0,0,1,.235-.164,20.3,20.3,0,0,1,10.659.445c-.062-.542-.136-1.08-.223-1.6a24.259,24.259,0,0,0-8.6-.488.817.817,0,0,1-.609-.168.822.822,0,0,1-.312-.55.819.819,0,0,1,.168-.609.821.821,0,0,1,.55-.312,25.843,25.843,0,0,1,8.467.359c-.187-.84-.406-1.652-.652-2.419a31.432,31.432,0,0,0-11.551.5.352.352,0,0,1-.085.007.374.374,0,0,1-.369-.292.365.365,0,0,1,.044-.282.375.375,0,0,1,.236-.17,32.356,32.356,0,0,1,11.458-.565c-.168-.481-.358-.975-.58-1.5a27.951,27.951,0,0,0-8.843-.46.8.8,0,0,1-.6-.168.827.827,0,0,1-.312-.561.836.836,0,0,1,.735-.911,29.353,29.353,0,0,1,8.157.255,25.393,25.393,0,0,0-1.418-2.449,33.7,33.7,0,0,0-12.034.942.476.476,0,0,1-.1.013.38.38,0,0,1-.368-.284.375.375,0,0,1,.041-.288.371.371,0,0,1,.231-.172,34.32,34.32,0,0,1,11.686-1.019c-.46-.653-.951-1.286-1.459-1.885a13.547,13.547,0,0,0-9.182.043.758.758,0,0,1-.288.056.834.834,0,0,1-.774-.537.827.827,0,0,1,.022-.634.816.816,0,0,1,.464-.43,15.082,15.082,0,0,1,7.622-.746,28.735,28.735,0,0,0-2.872-2.377,37.646,37.646,0,0,0-10.464,2.147.468.468,0,0,1-.129.02.371.371,0,0,1-.356-.248.376.376,0,0,1,.227-.483,38.4,38.4,0,0,1,9.73-2.128c-.327-.214-.69-.442-1.127-.7a16.272,16.272,0,0,0-8.625.278.933.933,0,0,1-.248.034.827.827,0,0,1-.786-.578.829.829,0,0,1,.543-1.035,17.728,17.728,0,0,1,4.832-.791,26.642,26.642,0,0,0-3.6-1.123.831.831,0,0,1-.519-.377.811.811,0,0,1-.1-.619.816.816,0,0,1,.368-.515.818.818,0,0,1,.627-.1,29.574,29.574,0,0,1,8.168,3.3.741.741,0,0,1,.178.109,29.955,29.955,0,0,1,9.257,8.593c4.391,6.339,6,14,4.917,23.422,4.426-8.218,10.055-13.533,17.2-16.24a30.052,30.052,0,0,1,12.511-1.831.657.657,0,0,1,.207.017,29.294,29.294,0,0,1,8.587,1.916.815.815,0,0,1,.459.437.812.812,0,0,1,.01.632.829.829,0,0,1-1.068.469,27.613,27.613,0,0,0-3.6-1.119,17.843,17.843,0,0,1,3.526,3.389.831.831,0,0,1-.136,1.159.837.837,0,0,1-.509.181.834.834,0,0,1-.65-.316,16.324,16.324,0,0,0-6.946-5.121c-.4-.023-.863-.047-1.333-.057a38.551,38.551,0,0,1,6.809,7.271.37.37,0,0,1,.067.279.377.377,0,0,1-.151.245.372.372,0,0,1-.22.071.369.369,0,0,1-.311-.157,37.659,37.659,0,0,0-7.4-7.7,29.28,29.28,0,0,0-3.716.327,15.3,15.3,0,0,1,5.858,4.939.821.821,0,0,1,.136.617.817.817,0,0,1-.339.532.833.833,0,0,1-.475.152.834.834,0,0,1-.678-.356,13.511,13.511,0,0,0-7.534-5.241c-.776.211-1.538.453-2.268.721a34.422,34.422,0,0,1,9.048,7.472.377.377,0,0,1-.039.53.4.4,0,0,1-.534-.037,33.6,33.6,0,0,0-9.377-7.6,26.521,26.521,0,0,0-2.56,1.211,29.515,29.515,0,0,1,6.866,4.416.827.827,0,0,1,.085,1.165.823.823,0,0,1-.627.288.838.838,0,0,1-.536-.2,27.891,27.891,0,0,0-7.542-4.636c-.48.3-.917.6-1.331.906a32.227,32.227,0,0,1,9.114,6.966.372.372,0,0,1-.026.531.386.386,0,0,1-.533-.028,31.61,31.61,0,0,0-9.228-6.964c-.632.491-1.274,1.037-1.911,1.625a25.8,25.8,0,0,1,7.175,4.508.812.812,0,0,1,.278.563.822.822,0,0,1-.2.6.816.816,0,0,1-.622.277.815.815,0,0,1-.543-.2,24.313,24.313,0,0,0-7.367-4.482c-.4.419-.758.812-1.093,1.2a20.245,20.245,0,0,1,9.031,5.674.382.382,0,0,1,.1.272.373.373,0,0,1-.122.264.386.386,0,0,1-.258.1.37.37,0,0,1-.278-.123,19.8,19.8,0,0,0-9.006-5.547c-.51.623-.97,1.219-1.405,1.818a18.929,18.929,0,0,1,6.7,4.022.817.817,0,0,1,.262.574.82.82,0,0,1-.222.591.834.834,0,0,1-.605.266.834.834,0,0,1-.564-.22,17.267,17.267,0,0,0-6.547-3.822,46.94,46.94,0,0,0-2.963,5.161,3.662,3.662,0,0,1,.648.383h17.082a1.354,1.354,0,0,1,1.169.678,28.205,28.205,0,0,1,4.444,1.266,30.14,30.14,0,0,1,10.6,6.881.92.92,0,0,1,.144.15,29.385,29.385,0,0,1,5.189,7.111h0a.827.827,0,0,1-.351,1.114.85.85,0,0,1-.379.091.826.826,0,0,1-.735-.447,27.924,27.924,0,0,0-1.971-3.222,17.887,17.887,0,0,1,.412,4.877.827.827,0,0,1-.825.786l-.031,0a.833.833,0,0,1-.795-.872,16.209,16.209,0,0,0-1.837-8.428c-.34-.34-.656-.643-.961-.922a38.72,38.72,0,0,1,.317,9.954.382.382,0,0,1-.375.342.154.154,0,0,1-.05-.007.379.379,0,0,1-.244-.132.37.37,0,0,1-.087-.275,37.645,37.645,0,0,0-.474-10.674,28.514,28.514,0,0,0-3.01-2.206,15.323,15.323,0,0,1,1.146,7.573.833.833,0,0,1-.825.735.549.549,0,0,1-.095-.006.825.825,0,0,1-.725-.91,13.533,13.533,0,0,0-2.2-8.915c-.715-.35-1.449-.671-2.184-.955a34.482,34.482,0,0,1,1.866,11.583.376.376,0,0,1-.376.374.369.369,0,0,1-.27-.113.369.369,0,0,1-.105-.27,33.606,33.606,0,0,0-2.033-11.9,27.5,27.5,0,0,0-2.717-.783,29.474,29.474,0,0,1,2.238,7.854.823.823,0,0,1-.7.933.83.83,0,0,1-.934-.707,27.976,27.976,0,0,0-2.315-7.844h-1.586a32.3,32.3,0,0,1,1.946,10.435.379.379,0,0,1-.368.387.387.387,0,0,1-.388-.373,31.683,31.683,0,0,0-1.986-10.449h-2.427a25.922,25.922,0,0,1,1.988,7.21.809.809,0,0,1-.161.606.818.818,0,0,1-.552.315.729.729,0,0,1-.107.006.834.834,0,0,1-.82-.723,24.1,24.1,0,0,0-2.171-7.414h-1.635a20.343,20.343,0,0,1,2.659,9.591.379.379,0,0,1-.368.387.387.387,0,0,1-.388-.373,19.5,19.5,0,0,0-2.784-9.605h-2.535a18.942,18.942,0,0,1,2.342,7.376.822.822,0,0,1-.183.607.82.82,0,0,1-.558.3l-.039,0-.04,0a.83.83,0,0,1-.825-.746,17.236,17.236,0,0,0-2.4-7.194c-.91.249-1.621.462-2.29.685a3.588,3.588,0,0,1-.668,1.341c5.732,5.021,8.83,10.406,9.471,16.463a22.532,22.532,0,0,1-1.057,9.428.752.752,0,0,1-.059.177,22.008,22.008,0,0,1-3.031,5.864.822.822,0,0,1-.667.339.82.82,0,0,1-.486-.158.833.833,0,0,1-.181-1.154c.336-.462.656-.949.974-1.482a13.543,13.543,0,0,1-2.341,1.314.833.833,0,0,1-1.086-.429.827.827,0,0,1,.43-1.086,11.912,11.912,0,0,0,4.9-3.943c.056-.166.107-.334.157-.5a28.821,28.821,0,0,1-6.164,3.275.471.471,0,0,1-.136.021.378.378,0,0,1-.35-.24.379.379,0,0,1,.213-.491,27.952,27.952,0,0,0,6.756-3.726c.175-.732.313-1.462.41-2.174a11.421,11.421,0,0,1-4.3,2.861.828.828,0,0,1-1.063-.486.83.83,0,0,1,.486-1.063,9.865,9.865,0,0,0,5.067-4.293c0-.445-.029-.91-.071-1.385a25.757,25.757,0,0,1-6.857,4.862.4.4,0,0,1-.167.039.389.389,0,0,1-.341-.216.38.38,0,0,1,.179-.507,25.012,25.012,0,0,0,7.085-5.152c-.078-.6-.174-1.156-.292-1.693a22.367,22.367,0,0,1-4.254,3.831.833.833,0,0,1-.469.147.824.824,0,0,1-.679-.362.826.826,0,0,1,.209-1.148,20.367,20.367,0,0,0,4.647-4.43c-.087-.27-.186-.541-.283-.8a24.221,24.221,0,0,1-6.573,5.051.356.356,0,0,1-.175.045.379.379,0,0,1-.336-.207.371.371,0,0,1-.026-.285.376.376,0,0,1,.188-.224,23.3,23.3,0,0,0,6.608-5.161c-.2-.465-.412-.914-.647-1.369a19.461,19.461,0,0,1-4.448,4.1.813.813,0,0,1-.458.141.826.826,0,0,1-.689-.368.817.817,0,0,1-.124-.62.823.823,0,0,1,.355-.528,17.809,17.809,0,0,0,4.479-4.29c-.134-.216-.28-.442-.466-.717a15.2,15.2,0,0,1-5.688,5.229.336.336,0,0,1-.175.045.39.39,0,0,1-.334-.2.375.375,0,0,1,.16-.514,14.654,14.654,0,0,0,5.562-5.235c-.257-.362-.542-.736-.847-1.115a14.368,14.368,0,0,1-4.064,3.883.817.817,0,0,1-.441.13.826.826,0,0,1-.7-.384.821.821,0,0,1-.107-.627.818.818,0,0,1,.367-.516,12.638,12.638,0,0,0,3.834-3.8,36.637,36.637,0,0,0-3.238-3.147,3.466,3.466,0,0,1-.853.258.909.909,0,0,1-.049.132,93.235,93.235,0,0,0-8.523,35.206l-.031.961c-.064,1.927-.071,3.876-.02,5.8a88.892,88.892,0,0,0,9.171-10.179,1.346,1.346,0,0,1,.9-.518,1.336,1.336,0,0,1,1,.274,1.342,1.342,0,0,1,.519.9,1.345,1.345,0,0,1-.27,1,90.714,90.714,0,0,1-11.189,12.09c-.438.4-.9.808-1.413,1.249-1.1.951-2.2,1.854-3.26,2.682-.546.43-.97.755-1.372,1.055-.075.06-.148.117-.225.174-.413.308-.9.673-1.412,1.034a88.139,88.139,0,0,1-31.028,14.2l-.019,0c-1.016.241-1.935.445-2.8.622a89.846,89.846,0,0,1-13.252,1.72c-.894.054-1.81.091-2.8.113C2224.873-1831.759,2224.106-1831.749,2223.348-1831.749Zm-54.909-159.957a1.187,1.187,0,0,0-.743.261,89.075,89.075,0,0,0-33.82,70.061,89.576,89.576,0,0,0,89.472,89.477c.757,0,1.522-.01,2.273-.031.989-.022,1.9-.058,2.795-.112a89.69,89.69,0,0,0,13.229-1.717c.86-.177,1.778-.38,2.805-.623l.018,0a87.991,87.991,0,0,0,30.96-14.177c.507-.36,1-.724,1.41-1.032.076-.056.147-.112.223-.172.4-.3.826-.625,1.371-1.054,1.057-.827,2.152-1.728,3.255-2.677.511-.44.972-.847,1.41-1.246a90.556,90.556,0,0,0,11.17-12.069,1.188,1.188,0,0,0,.239-.886,1.185,1.185,0,0,0-.459-.792,1.18,1.18,0,0,0-.881-.242,1.191,1.191,0,0,0-.8.458,89.014,89.014,0,0,1-9.316,10.319l-.128.121-.005-.177c-.056-1.981-.051-3.994.015-5.983l.031-.961a93.392,93.392,0,0,1,8.537-35.266.648.648,0,0,0,.05-.15l.01-.055.055-.009a3.319,3.319,0,0,0,.909-.275l.046-.022.039.034a36.758,36.758,0,0,1,3.331,3.239l.04.045-.032.051a12.8,12.8,0,0,1-3.916,3.9.661.661,0,0,0-.3.417.666.666,0,0,0,.086.507.669.669,0,0,0,.567.311.662.662,0,0,0,.356-.105,14.212,14.212,0,0,0,4.079-3.926l.06-.087.067.082c.344.424.664.844.949,1.247l.03.042-.027.044a14.811,14.811,0,0,1-5.651,5.337.219.219,0,0,0-.094.3.231.231,0,0,0,.2.116.19.19,0,0,0,.1-.024,15.063,15.063,0,0,0,5.7-5.278l.064-.1.068.1c.233.343.407.61.564.867l.028.045-.031.043a17.968,17.968,0,0,1-4.551,4.371.667.667,0,0,0-.288.427.661.661,0,0,0,.1.5.669.669,0,0,0,.558.3.656.656,0,0,0,.37-.114,19.3,19.3,0,0,0,4.488-4.162l.075-.1.057.108c.269.511.507,1.013.729,1.535l.02.046-.033.037a23.453,23.453,0,0,1-6.686,5.234.221.221,0,0,0-.11.131.214.214,0,0,0,.015.166.221.221,0,0,0,.3.1,24.072,24.072,0,0,0,6.618-5.113l.086-.1.046.12c.117.307.24.636.344.966l.012.039-.025.033a20.524,20.524,0,0,1-4.708,4.5.668.668,0,0,0-.169.928.667.667,0,0,0,.549.293.674.674,0,0,0,.38-.119,22.2,22.2,0,0,0,4.326-3.923l.1-.12.036.154c.138.6.247,1.222.333,1.9l0,.037-.026.027a25.17,25.17,0,0,1-7.157,5.212.221.221,0,0,0-.106.293.218.218,0,0,0,.3.105,25.586,25.586,0,0,0,6.931-4.949l.118-.119.016.167c.053.546.082,1.079.087,1.587v.021l-.011.019a10.027,10.027,0,0,1-5.16,4.382.671.671,0,0,0-.393.86.671.671,0,0,0,.861.393,11.284,11.284,0,0,0,4.407-3l.167-.184-.031.247a22.4,22.4,0,0,1-.451,2.463l-.007.028-.023.017a28.1,28.1,0,0,1-6.815,3.764.221.221,0,0,0-.124.286.235.235,0,0,0,.288.127,28.668,28.668,0,0,0,6.307-3.384l.185-.132-.063.218c-.07.24-.142.489-.226.734l-.011.021a12.072,12.072,0,0,1-4.968,4.005.669.669,0,0,0-.348.878.675.675,0,0,0,.879.347,13.378,13.378,0,0,0,2.612-1.515l.3-.226-.188.328a19.768,19.768,0,0,1-1.17,1.818.673.673,0,0,0,.146.933.662.662,0,0,0,.393.128.664.664,0,0,0,.539-.274,21.877,21.877,0,0,0,3.012-5.83.678.678,0,0,0,.053-.157,22.4,22.4,0,0,0,1.053-9.372c-.638-6.035-3.738-11.4-9.475-16.411l-.058-.051.05-.059a3.419,3.419,0,0,0,.695-1.38l.01-.042.041-.014c.7-.234,1.438-.455,2.4-.717l.057-.016.031.051a17.391,17.391,0,0,1,2.451,7.311.672.672,0,0,0,.668.6l.024,0a.465.465,0,0,1,.048,0,.66.66,0,0,0,.443-.24.663.663,0,0,0,.148-.491,18.776,18.776,0,0,0-2.388-7.43l-.068-.118h2.9l.022.044a19.65,19.65,0,0,1,2.827,9.716.227.227,0,0,0,.223.219.224.224,0,0,0,.218-.225,20.2,20.2,0,0,0-2.7-9.633l-.069-.119h1.995l.035.048a24.25,24.25,0,0,1,2.205,7.5.678.678,0,0,0,.669.585.527.527,0,0,0,.08,0,.661.661,0,0,0,.447-.255.651.651,0,0,0,.13-.489,25.775,25.775,0,0,0-2.02-7.267l-.007-.016-.037-.105h2.759l.023.038a31.82,31.82,0,0,1,2.022,10.565.226.226,0,0,0,.223.219.219.219,0,0,0,.218-.226,32.175,32.175,0,0,0-1.974-10.489l-.072-.12.146.012h1.793l.031.054a28.131,28.131,0,0,1,2.345,7.926.668.668,0,0,0,.658.577.635.635,0,0,0,.1,0,.666.666,0,0,0,.567-.755,29.325,29.325,0,0,0-2.29-7.956l-.064-.145.154.035a27.675,27.675,0,0,1,2.923.836l.035.012.013.035a33.765,33.765,0,0,1,2.055,11.99.214.214,0,0,0,.061.157.21.21,0,0,0,.152.065.219.219,0,0,0,.223-.218,34.324,34.324,0,0,0-1.914-11.69l-.056-.16.159.06c.8.3,1.6.65,2.375,1.031l.019.009.012.017a13.693,13.693,0,0,1,2.238,9.038.668.668,0,0,0,.59.736.408.408,0,0,0,.073,0,.674.674,0,0,0,.668-.6,15.158,15.158,0,0,0-1.236-7.726l-.106-.237.22.137a28.626,28.626,0,0,1,3.267,2.374l.021.018.005.028a37.786,37.786,0,0,1,.482,10.746.213.213,0,0,0,.05.158.223.223,0,0,0,.15.078l.028.008a.23.23,0,0,0,.214-.2,38.569,38.569,0,0,0-.352-10.135l-.037-.222.168.15c.361.324.736.679,1.143,1.087l.014.019a16.366,16.366,0,0,1,1.86,8.52.67.67,0,0,0,.631.7.145.145,0,0,1,.035,0h0a.668.668,0,0,0,.668-.635,17.791,17.791,0,0,0-.5-5.219l-.1-.39.236.324a28.239,28.239,0,0,1,2.216,3.564.668.668,0,0,0,.595.362.692.692,0,0,0,.307-.073.669.669,0,0,0,.282-.9h0a29.271,29.271,0,0,0-5.167-7.079.86.86,0,0,0-.131-.137,29.988,29.988,0,0,0-10.554-6.851,28,28,0,0,0-4.447-1.265l-.036-.007-.026-.034a1.2,1.2,0,0,0-1.048-.629h-17.134l-.021-.016a3.506,3.506,0,0,0-.713-.414l-.076-.033.037-.075a47.129,47.129,0,0,1,3.043-5.3l.033-.049.056.018a17.42,17.42,0,0,1,6.663,3.873.677.677,0,0,0,.457.178.674.674,0,0,0,.49-.215.662.662,0,0,0,.179-.478.66.66,0,0,0-.211-.464,18.774,18.774,0,0,0-6.748-4.023l-.1-.034.063-.087c.465-.644.957-1.282,1.507-1.952l.033-.04.05.014a19.96,19.96,0,0,1,9.129,5.607.213.213,0,0,0,.162.072.23.23,0,0,0,.151-.056.215.215,0,0,0,.07-.153.225.225,0,0,0-.06-.16,20.37,20.37,0,0,0-9.077-5.664l-.117-.035.08-.093c.37-.427.768-.863,1.215-1.332l.036-.038.049.019a24.469,24.469,0,0,1,7.465,4.53.667.667,0,0,0,.439.164.66.66,0,0,0,.5-.224.665.665,0,0,0,.166-.487.654.654,0,0,0-.225-.454,25.647,25.647,0,0,0-7.245-4.528l-.114-.047.09-.084c.683-.635,1.373-1.224,2.051-1.748l.039-.03.044.022a31.769,31.769,0,0,1,9.32,7.024.209.209,0,0,0,.162.071.217.217,0,0,0,.146-.056.216.216,0,0,0,.015-.307,32.078,32.078,0,0,0-9.183-6.989l-.114-.057.1-.076c.457-.34.94-.671,1.478-1.011l.034-.022.038.016a28.035,28.035,0,0,1,7.621,4.677.684.684,0,0,0,.942-.073.669.669,0,0,0-.068-.943,29.338,29.338,0,0,0-6.972-4.457l-.143-.065.138-.076a26.578,26.578,0,0,1,2.749-1.308l.035-.014.033.018a33.75,33.75,0,0,1,9.453,7.653.231.231,0,0,0,.17.075.211.211,0,0,0,.141-.051.22.22,0,0,0,.023-.31,34.271,34.271,0,0,0-9.153-7.52l-.148-.083.159-.059c.79-.3,1.618-.561,2.462-.79l.021-.006.02.005a13.672,13.672,0,0,1,7.644,5.309.666.666,0,0,0,.549.289.676.676,0,0,0,.385-.124.66.66,0,0,0,.274-.429.664.664,0,0,0-.11-.5,15.139,15.139,0,0,0-6.028-5l-.237-.108.257-.042a29.4,29.4,0,0,1,4.02-.369h.028l.022.017a37.835,37.835,0,0,1,7.456,7.754.226.226,0,0,0,.309.049.219.219,0,0,0,.088-.143.214.214,0,0,0-.039-.161,38.4,38.4,0,0,0-6.956-7.385l-.175-.142.226,0c.554.005,1.109.034,1.579.061l.024.005a16.484,16.484,0,0,1,7.025,5.175.675.675,0,0,0,.526.256.678.678,0,0,0,.412-.147.664.664,0,0,0,.109-.937,17.7,17.7,0,0,0-3.818-3.589l-.332-.23.394.089a27.984,27.984,0,0,1,4.016,1.215.671.671,0,0,0,.864-.379.655.655,0,0,0-.008-.511.657.657,0,0,0-.371-.353,29.19,29.19,0,0,0-8.553-1.907.608.608,0,0,0-.183-.015,29.926,29.926,0,0,0-12.456,1.821c-7.21,2.734-12.872,8.143-17.31,16.537l-.2.38.052-.426c1.176-9.569-.407-17.331-4.84-23.731a29.822,29.822,0,0,0-9.216-8.553.682.682,0,0,0-.159-.1,29.46,29.46,0,0,0-8.134-3.284.661.661,0,0,0-.508.081.658.658,0,0,0-.3.417.655.655,0,0,0,.078.5.673.673,0,0,0,.42.305,26.875,26.875,0,0,1,4,1.277l.371.151h-.4a17.6,17.6,0,0,0-5.183.789.663.663,0,0,0-.439.837.667.667,0,0,0,.635.466.775.775,0,0,0,.2-.028,16.428,16.428,0,0,1,8.717-.277l.022.009c.53.319.953.586,1.333.841l.188.126-.226.018a38.229,38.229,0,0,0-9.916,2.138.22.22,0,0,0-.131.283.221.221,0,0,0,.287.129,37.787,37.787,0,0,1,10.531-2.156l.028,0,.023.016a28.853,28.853,0,0,1,3.1,2.585l.186.179-.254-.044a14.938,14.938,0,0,0-7.793.7.66.66,0,0,0-.375.347.669.669,0,0,0-.018.513.674.674,0,0,0,.626.434.592.592,0,0,0,.231-.045,13.71,13.71,0,0,1,9.313-.037l.02.007.014.016c.553.649,1.084,1.34,1.58,2.052l.1.139-.169-.015a34.155,34.155,0,0,0-11.8,1,.216.216,0,0,0-.135.1.218.218,0,0,0-.024.168.229.229,0,0,0,.276.157,33.844,33.844,0,0,1,12.124-.942l.037,0,.021.031a25.513,25.513,0,0,1,1.518,2.637l.07.14-.154-.027a29.212,29.212,0,0,0-8.267-.281.676.676,0,0,0-.595.737.669.669,0,0,0,.253.454.645.645,0,0,0,.482.135,28.115,28.115,0,0,1,8.935.471l.04.009.016.038c.249.591.458,1.138.641,1.672l.042.121-.127-.017a32.192,32.192,0,0,0-11.529.546.217.217,0,0,0-.136.1.209.209,0,0,0-.025.163.217.217,0,0,0,.215.171.246.246,0,0,0,.047,0,31.6,31.6,0,0,1,11.66-.5l.049.007.015.047c.265.821.5,1.7.7,2.6l.026.12-.12-.026a25.692,25.692,0,0,0-8.534-.382.664.664,0,0,0-.445.253.663.663,0,0,0-.136.493.665.665,0,0,0,.253.445.663.663,0,0,0,.492.136,24.425,24.425,0,0,1,8.712.5l.051.012.009.052c.1.581.18,1.181.246,1.784l.013.121-.116-.038a20.147,20.147,0,0,0-10.692-.479.214.214,0,0,0-.136.1.224.224,0,0,0-.03.168.214.214,0,0,0,.095.136.223.223,0,0,0,.168.029,19.885,19.885,0,0,1,10.7.56l.049.017,0,.051c.072.8.118,1.629.138,2.46l0,.107-.1-.029a18.839,18.839,0,0,0-7.843-.514.663.663,0,0,0-.439.265.669.669,0,0,0-.124.5.676.676,0,0,0,.76.563,17.333,17.333,0,0,1,7.69.591l.057.018v.059a50.219,50.219,0,0,1-.65,7.007l-.008.048-.046.015a3.563,3.563,0,0,0-.82.4l-.06.039-.044-.056c-5.657-7.16-11.985-11.345-19.346-12.792a29.8,29.8,0,0,0-12.572.286.651.651,0,0,0-.184.043,29.312,29.312,0,0,0-8.124,3.313.668.668,0,0,0-.229.915.666.666,0,0,0,.919.228,27.591,27.591,0,0,1,3.754-1.867l.37-.151-.285.28a17.882,17.882,0,0,0-3.167,4.175.674.674,0,0,0,.266.911.687.687,0,0,0,.319.077.665.665,0,0,0,.591-.348,16.464,16.464,0,0,1,6.058-6.274l.022-.009c.423-.1.981-.222,1.548-.323l.222-.04-.149.17a38.318,38.318,0,0,0-5.624,8.441.214.214,0,0,0-.014.168.212.212,0,0,0,.11.125.22.22,0,0,0,.3-.1,37.837,37.837,0,0,1,6.052-8.889l.019-.021.028,0a28.717,28.717,0,0,1,4.025-.3h.258l-.214.145a15.134,15.134,0,0,0-5.107,5.931.661.661,0,0,0-.023.51.659.659,0,0,0,.343.376.627.627,0,0,0,.284.064.674.674,0,0,0,.6-.38,13.7,13.7,0,0,1,6.651-6.517l.019-.009.021,0c.878.089,1.739.215,2.559.375l.167.032-.132.107a34.243,34.243,0,0,0-7.765,8.939.219.219,0,0,0-.026.17.21.21,0,0,0,.1.13.215.215,0,0,0,.3-.075,33.853,33.853,0,0,1,8.042-9.124l.03-.023.037.008a27.378,27.378,0,0,1,2.928.826l.149.051-.131.089a29.458,29.458,0,0,0-6.125,5.564.67.67,0,0,0,.087.943.678.678,0,0,0,.425.155.67.67,0,0,0,.517-.242,27.983,27.983,0,0,1,6.733-5.887l.035-.022.038.016c.541.23,1.086.482,1.62.749l.115.057-.1.077a32.22,32.22,0,0,0-7.886,8.427.227.227,0,0,0,.069.306.232.232,0,0,0,.3-.069,31.793,31.793,0,0,1,8.013-8.485l.04-.029.044.023c.8.428,1.577.892,2.313,1.379l.1.068-.1.065a25.922,25.922,0,0,0-6.388,5.675.664.664,0,0,0-.145.492.668.668,0,0,0,.246.451.667.667,0,0,0,.421.146.666.666,0,0,0,.522-.247,24.453,24.453,0,0,1,6.6-5.715l.045-.027.042.031c.542.4.995.757,1.425,1.112l.094.078-.109.054a20.4,20.4,0,0,0-6.723,5.343l-.024.029h-27.757l-.011-.066a176.71,176.71,0,0,0-9.732-35.592l-.005-.029a1.191,1.191,0,0,0-.245-.619l-.01-.018a168.277,168.277,0,0,0-9.155-19.5l-.073-.132.15.015a62.9,62.9,0,0,1,8.175,1.365l.059.014,0,.06a21.85,21.85,0,0,1-1.737,9.264,1.2,1.2,0,0,0,.63,1.575,1.194,1.194,0,0,0,.472.1,1.2,1.2,0,0,0,1.1-.727,24.331,24.331,0,0,0,1.943-9.516v-.106l.1.03c.874.259,1.731.539,2.551.834l.049.018,0,.052a25.229,25.229,0,0,1-2.789,12.972.433.433,0,0,0,.182.584.435.435,0,0,0,.2.049.431.431,0,0,0,.383-.232,25.8,25.8,0,0,0,2.908-12.98l0-.12.113.044c.486.189,1.06.417,1.631.668l.049.021v.053a30.682,30.682,0,0,1-2.17,10.561,1.189,1.189,0,0,0,.012.918,1.191,1.191,0,0,0,.657.64,1.194,1.194,0,0,0,.444.085,1.194,1.194,0,0,0,1.115-.756,33.1,33.1,0,0,0,2.292-10.232l.008-.122.108.057c.9.473,1.739.96,2.509,1.449l.042.027-.006.05a40.263,40.263,0,0,1-4.336,13.846.43.43,0,0,0-.032.329.43.43,0,0,0,.211.255.441.441,0,0,0,.585-.179,41.2,41.2,0,0,0,4.37-13.637l.017-.127.106.072c.5.342.983.688,1.433,1.03l.033.025,0,.042a35.353,35.353,0,0,1-2.28,10.875,1.192,1.192,0,0,0,.026.918,1.191,1.191,0,0,0,.667.631,1.187,1.187,0,0,0,.427.079,1.207,1.207,0,0,0,1.121-.772,37.8,37.8,0,0,0,2.294-9.734l.016-.157.116.107c.766.7,1.52,1.472,2.3,2.348l.025.028-.006.037a42.923,42.923,0,0,1-5.017,14.269.428.428,0,0,0-.042.328.429.429,0,0,0,.2.261.43.43,0,0,0,.214.057.432.432,0,0,0,.376-.218,43.9,43.9,0,0,0,4.984-13.718l.03-.167.108.13c.626.756,1.167,1.46,1.654,2.154l.012.017,0,.021a17.086,17.086,0,0,1-3.008,11.134,1.193,1.193,0,0,0-.2.9,1.192,1.192,0,0,0,.491.776,1.19,1.19,0,0,0,.69.219,1.2,1.2,0,0,0,.981-.508,19.425,19.425,0,0,0,3.323-8.514l.034-.246.115.22a36.434,36.434,0,0,1,1.736,3.886l.01.026-.009.027a48.1,48.1,0,0,1-5.938,11.9.433.433,0,0,0,.111.6.444.444,0,0,0,.6-.111,49.02,49.02,0,0,0,5.619-10.909l.078-.214.071.216c.145.441.273.853.391,1.258l0,.012v.012a20.553,20.553,0,0,1-3.106,10.428,1.2,1.2,0,0,0,.382,1.653,1.2,1.2,0,0,0,.635.182,1.193,1.193,0,0,0,1.018-.564,22.975,22.975,0,0,0,2.218-4.677l.123-.356.031.376a34.76,34.76,0,0,1,.111,3.686,1.19,1.19,0,0,0,.329.857,1.192,1.192,0,0,0,.839.373h.031a1.193,1.193,0,0,0,1.2-1.169,37.691,37.691,0,0,0-1.417-11.149,1.225,1.225,0,0,0-.079-.284,38.366,38.366,0,0,0-7.619-14.233c-6.868-8.019-16.669-12.6-29.963-14.015l-.071-.008v-.09a5.859,5.859,0,0,0-.877-3.084l-.029-.047.034-.043c1.481-1.889,3.018-3.683,4.568-5.335l.041-.043.053.027a29.726,29.726,0,0,1,10.127,8.425,1.192,1.192,0,0,0,.955.472,1.189,1.189,0,0,0,.727-.246,1.192,1.192,0,0,0,.461-.794,1.191,1.191,0,0,0-.235-.887,32.22,32.22,0,0,0-10.251-8.733l-.094-.051.076-.075c1.023-1.009,2.068-1.973,3.1-2.867l.039-.034.046.022a33.994,33.994,0,0,1,13.77,12.062.431.431,0,0,0,.364.2.43.43,0,0,0,.234-.069.429.429,0,0,0,.188-.272.429.429,0,0,0-.06-.326,34.923,34.923,0,0,0-13.712-12.174l-.109-.054.094-.078c.774-.642,1.589-1.28,2.422-1.9l.042-.031.045.027a41.648,41.648,0,0,1,11.28,9.758,1.2,1.2,0,0,0,.935.448,1.186,1.186,0,0,0,.751-.265,1.191,1.191,0,0,0,.441-.805,1.191,1.191,0,0,0-.259-.881,44.043,44.043,0,0,0-10.945-9.721l-.1-.065.1-.068c1.287-.852,2.62-1.648,3.962-2.366l.043-.023.04.029a54.183,54.183,0,0,1,13.688,14.505.432.432,0,0,0,.365.2.432.432,0,0,0,.233-.068.433.433,0,0,0,.131-.6,55.133,55.133,0,0,0-13.5-14.437l-.1-.076.115-.058c.917-.463,1.843-.893,2.753-1.28l.038-.016.035.022a47.918,47.918,0,0,1,11.521,10.065,1.2,1.2,0,0,0,.924.434,1.2,1.2,0,0,0,.765-.276,1.2,1.2,0,0,0,.158-1.689,50.354,50.354,0,0,0-10.509-9.537l-.13-.089.149-.052a46.062,46.062,0,0,1,5.015-1.421l.036-.008.03.023a57.747,57.747,0,0,1,13.747,15.611.429.429,0,0,0,.372.21.43.43,0,0,0,.221-.061.43.43,0,0,0,.2-.266.431.431,0,0,0-.048-.328,58.737,58.737,0,0,0-13.285-15.312l-.132-.107.167-.032c1.432-.277,2.9-.489,4.367-.63l.021,0,.019.009a23.353,23.353,0,0,1,11.34,11.116,1.206,1.206,0,0,0,1.085.686,1.186,1.186,0,0,0,.513-.116,1.191,1.191,0,0,0,.616-.681,1.192,1.192,0,0,0-.046-.917,25.96,25.96,0,0,0-8.754-10.165l-.214-.146h.259a49.177,49.177,0,0,1,6.877.521l.028,0,.019.021a64.741,64.741,0,0,1,10.348,15.194.43.43,0,0,0,.389.242.433.433,0,0,0,.19-.044.433.433,0,0,0,.2-.578,65.645,65.645,0,0,0-9.628-14.451l-.149-.17.222.04c.825.149,1.688.331,2.638.557l.022.009a28.021,28.021,0,0,1,10.35,10.709,1.2,1.2,0,0,0,1.054.626,1.2,1.2,0,0,0,.573-.146,1.2,1.2,0,0,0,.479-1.627,30.394,30.394,0,0,0-5.4-7.146l-.286-.281.372.152a47.217,47.217,0,0,1,6.39,3.182,1.193,1.193,0,0,0,.908.135,1.194,1.194,0,0,0,.738-.547,1.2,1.2,0,0,0-.412-1.645,50.212,50.212,0,0,0-13.9-5.666,1.239,1.239,0,0,0-.318-.079,51.126,51.126,0,0,0-21.539-.49c-12.612,2.483-23.45,9.647-33.134,21.9l-.045.057-.06-.04a5.862,5.862,0,0,0-1.421-.683l-.046-.015-.008-.048a85.039,85.039,0,0,1-1.106-11.975v-.059l.056-.017a29.714,29.714,0,0,1,13.135-1.012,1.2,1.2,0,0,0,1.364-1.01,1.191,1.191,0,0,0-.222-.891,1.191,1.191,0,0,0-.787-.473,32.213,32.213,0,0,0-13.438.879l-.1.029,0-.107c.031-1.436.108-2.856.229-4.219l0-.051.049-.016a33.99,33.99,0,0,1,18.282-.942.433.433,0,0,0,.518-.325.427.427,0,0,0-.055-.326.428.428,0,0,0-.27-.192,34.916,34.916,0,0,0-18.318.821l-.116.037.013-.121c.108-1,.248-2.026.415-3.049l.009-.052.051-.012a41.625,41.625,0,0,1,14.89-.859,1.2,1.2,0,0,0,1.337-1.044,1.2,1.2,0,0,0-1.044-1.337,44.034,44.034,0,0,0-14.624.653l-.12.026.026-.12c.33-1.508.732-3.008,1.194-4.458l.015-.047.049-.007a54.2,54.2,0,0,1,19.926.867.424.424,0,0,0,.1.011.43.43,0,0,0,.42-.333.434.434,0,0,0-.322-.52,55.127,55.127,0,0,0-19.742-.95l-.127.017.042-.121c.336-.972.7-1.926,1.083-2.837l.016-.038.04-.009a47.937,47.937,0,0,1,15.277-.807,1.178,1.178,0,0,0,.877-.256,1.191,1.191,0,0,0,.445-.807,1.191,1.191,0,0,0-.258-.881,1.19,1.19,0,0,0-.805-.441,50.379,50.379,0,0,0-14.182.481l-.155.028.071-.141a46.079,46.079,0,0,1,2.607-4.513l.021-.031.037,0a57.756,57.756,0,0,1,20.737,1.62.437.437,0,0,0,.112.015.433.433,0,0,0,.417-.321.433.433,0,0,0-.306-.529,58.724,58.724,0,0,0-20.2-1.728l-.169.015.1-.139c.835-1.2,1.741-2.373,2.693-3.494l.014-.016.02-.007a23.359,23.359,0,0,1,15.879.073,1.2,1.2,0,0,0,.419.076,1.2,1.2,0,0,0,1.123-.78,1.189,1.189,0,0,0-.032-.917,1.19,1.19,0,0,0-.672-.626,25.969,25.969,0,0,0-13.363-1.191l-.255.045.186-.179a49.154,49.154,0,0,1,5.3-4.418l.023-.017.028,0a64.75,64.75,0,0,1,18.009,3.688.44.44,0,0,0,.553-.26.429.429,0,0,0-.016-.331.43.43,0,0,0-.245-.223,65.609,65.609,0,0,0-16.975-3.657l-.226-.018.188-.126c.7-.471,1.449-.943,2.291-1.444l.022-.009a28.02,28.02,0,0,1,14.875.477,1.193,1.193,0,0,0,.356.054,1.194,1.194,0,0,0,1.145-.844,1.2,1.2,0,0,0-.79-1.5,30.378,30.378,0,0,0-8.852-1.364l-.4,0,.372-.15a47.229,47.229,0,0,1,6.8-2.17,1.2,1.2,0,0,0,.893-1.443,1.2,1.2,0,0,0-1.443-.893,50.221,50.221,0,0,0-13.916,5.617,1.252,1.252,0,0,0-.281.165,51.116,51.116,0,0,0-15.793,14.656c-7.59,10.963-10.307,24.236-8.306,40.579l.052.425-.2-.379c-7.588-14.342-17.276-23.588-29.618-28.265a51.1,51.1,0,0,0-21.31-3.116,1.244,1.244,0,0,0-.324.023,50.231,50.231,0,0,0-14.657,3.266,1.192,1.192,0,0,0-.663.635,1.192,1.192,0,0,0-.019.918,1.19,1.19,0,0,0,.636.662,1.19,1.19,0,0,0,.917.019,47.2,47.2,0,0,1,6.832-2.069l.392-.088-.329.23a30.391,30.391,0,0,0-6.518,6.143,1.192,1.192,0,0,0-.248.884,1.191,1.191,0,0,0,.449.8,1.185,1.185,0,0,0,.74.257,1.193,1.193,0,0,0,.944-.458,28.024,28.024,0,0,1,11.982-8.828l.023-.005c.978-.064,1.863-.1,2.705-.109l.226,0-.176.143a65.631,65.631,0,0,0-11.908,12.638.43.43,0,0,0-.075.323.429.429,0,0,0,.175.281.444.444,0,0,0,.6-.1,64.735,64.735,0,0,1,12.742-13.251l.022-.017h.028a49.222,49.222,0,0,1,6.868.635l.255.042-.235.108a25.967,25.967,0,0,0-10.33,8.559,1.2,1.2,0,0,0,.295,1.671,1.194,1.194,0,0,0,.687.217,1.2,1.2,0,0,0,.984-.512,23.354,23.354,0,0,1,13.038-9.065l.021-.005.02.005c1.42.384,2.833.839,4.2,1.351l.159.06-.148.083a58.746,58.746,0,0,0-15.657,12.877.429.429,0,0,0-.1.315.43.43,0,0,0,.15.295.445.445,0,0,0,.61-.048,57.753,57.753,0,0,1,16.161-13.094l.033-.018.035.014a46.072,46.072,0,0,1,4.707,2.239l.138.076-.144.066a50.35,50.35,0,0,0-11.954,7.647,1.191,1.191,0,0,0-.414.819,1.19,1.19,0,0,0,.287.872,1.2,1.2,0,0,0,.909.417,1.2,1.2,0,0,0,.782-.29,47.923,47.923,0,0,1,13.04-8l.038-.016.035.022c.833.534,1.674,1.113,2.5,1.723l.1.076-.114.058a55.121,55.121,0,0,0-15.722,11.978.433.433,0,0,0,.03.611.445.445,0,0,0,.611-.03,54.19,54.19,0,0,1,15.92-12.014l.044-.022.039.03c1.2.932,2.384,1.939,3.511,2.995l.09.084-.114.047a44.047,44.047,0,0,0-12.416,7.756,1.192,1.192,0,0,0-.4.826,1.192,1.192,0,0,0,.3.868,1.2,1.2,0,0,0,.9.4,1.2,1.2,0,0,0,.795-.3,41.638,41.638,0,0,1,12.752-7.736l.049-.019.036.038c.719.749,1.416,1.514,2.071,2.276l.079.092-.117.035a34.924,34.924,0,0,0-15.554,9.712.431.431,0,0,0-.113.311.43.43,0,0,0,.14.3.445.445,0,0,0,.611-.027,33.986,33.986,0,0,1,15.592-9.591l.05-.014.033.04c.873,1.054,1.741,2.18,2.581,3.345l.063.087-.1.034a32.215,32.215,0,0,0-11.567,6.9,1.2,1.2,0,0,0-.058,1.7,1.2,1.2,0,0,0,.877.381,1.2,1.2,0,0,0,.818-.323,29.72,29.72,0,0,1,11.392-6.615l.057-.018.033.049a83.252,83.252,0,0,1,5.191,9.068l.037.075-.077.033a5.886,5.886,0,0,0-3.444,4.135l-.019.085-.083-.026c-13.4-4.289-25.349-4.338-36.524-.149a51.089,51.089,0,0,0-18.064,11.724,1.24,1.24,0,0,0-.229.231,50.267,50.267,0,0,0-8.855,12.129,1.2,1.2,0,0,0,.513,1.617,1.19,1.19,0,0,0,.551.135,1.2,1.2,0,0,0,1.066-.648,47.229,47.229,0,0,1,3.767-6.064l.237-.324-.1.39a30.357,30.357,0,0,0-.841,8.917,1.2,1.2,0,0,0,1.2,1.135l.065,0a1.192,1.192,0,0,0,.829-.4,1.19,1.19,0,0,0,.3-.866,28.024,28.024,0,0,1,3.173-14.54l.014-.019c.692-.693,1.333-1.3,1.961-1.868l.168-.151-.038.223a65.626,65.626,0,0,0-.6,17.354.428.428,0,0,0,.472.388.433.433,0,0,0,.388-.472,64.744,64.744,0,0,1,.826-18.365l.005-.028.021-.018a49.221,49.221,0,0,1,5.579-4.056l.219-.137-.105.236a25.96,25.96,0,0,0-2.111,13.247,1.2,1.2,0,0,0,1.324,1.06,1.192,1.192,0,0,0,.8-.442,1.191,1.191,0,0,0,.256-.882,23.358,23.358,0,0,1,3.811-15.415l.012-.018.019-.009c1.322-.65,2.684-1.241,4.048-1.758l.159-.06-.056.16a58.747,58.747,0,0,0-3.263,20.008.434.434,0,0,0,.432.426.434.434,0,0,0,.432-.438,57.761,57.761,0,0,1,3.5-20.5l.013-.035.035-.012a46,46,0,0,1,5.014-1.425l.154-.034-.064.144a50.365,50.365,0,0,0-3.933,13.635,1.2,1.2,0,0,0,1.021,1.354,1.193,1.193,0,0,0,.168.012,1.2,1.2,0,0,0,1.186-1.033,47.931,47.931,0,0,1,4.517-14.616l.018-.037.041-.006c.978-.149,1.992-.269,3.016-.357l.128-.011-.048.119a55.125,55.125,0,0,0-3.905,19.376.433.433,0,0,0,.425.439.436.436,0,0,0,.44-.425,54.2,54.2,0,0,1,4.03-19.533l.019-.046.049,0c1.52-.094,3.072-.116,4.614-.068l.123,0-.054.11a44.043,44.043,0,0,0-4.208,14.021,1.19,1.19,0,0,0,.243.885,1.191,1.191,0,0,0,.8.454,1.2,1.2,0,0,0,1.339-1.041,41.655,41.655,0,0,1,4.473-14.229l.024-.046.052,0c1.035.088,2.063.2,3.058.343l.121.017-.065.1a34.919,34.919,0,0,0-5.274,17.562.433.433,0,0,0,.424.442.437.437,0,0,0,.441-.423,33.987,33.987,0,0,1,5.382-17.5l.028-.043.051.008c1.353.216,2.749.488,4.147.809l.1.024-.053.093a32.215,32.215,0,0,0-4.137,12.815,1.192,1.192,0,0,0,.266.879,1.191,1.191,0,0,0,.809.433,1.2,1.2,0,0,0,1.312-1.075,29.735,29.735,0,0,1,4.193-12.489l.031-.051.057.016c1.365.369,2.74.782,4.088,1.229l.042.014.01.043a5.887,5.887,0,0,0,1.2,2.39l.05.059-.058.051c-9.824,8.576-15.131,17.768-16.223,28.1a38.312,38.312,0,0,0,1.473,15.027.859.859,0,0,1,.448.054,17.68,17.68,0,0,1,2.516,1.161c.177.074.368.151.574.23-.338-.4-.655-.807-.946-1.209l-.011-.021c-.133-.4-.261-.812-.392-1.258l-.064-.218.185.132a49,49,0,0,0,10.815,5.8.441.441,0,0,0,.558-.249.429.429,0,0,0-.009-.331.429.429,0,0,0-.24-.228,48.106,48.106,0,0,1-11.639-6.433l-.023-.017-.007-.027a36.394,36.394,0,0,1-.773-4.186l-.03-.246.167.183a19.422,19.422,0,0,0,7.565,5.128,1.2,1.2,0,0,0,.416.074,1.2,1.2,0,0,0,1.125-.784,1.2,1.2,0,0,0-.71-1.54,17.088,17.088,0,0,1-8.792-7.466l-.01-.018v-.021c.009-.849.054-1.736.141-2.712l.015-.169.12.12a43.9,43.9,0,0,0,11.883,8.473.443.443,0,0,0,.577-.2.433.433,0,0,0-.2-.578,42.916,42.916,0,0,1-12.234-8.918l-.026-.027,0-.037c.14-1.088.333-2.175.575-3.233l.035-.154.1.121a37.821,37.821,0,0,0,7.412,6.719,1.193,1.193,0,0,0,.679.211,1.2,1.2,0,0,0,.989-.519,1.2,1.2,0,0,0-.307-1.668,35.364,35.364,0,0,1-8.051-7.672l-.025-.033.013-.039c.187-.569.387-1.129.594-1.663l.046-.119.086.095a41.2,41.2,0,0,0,11.341,8.763.437.437,0,0,0,.2.049.431.431,0,0,0,.384-.233.433.433,0,0,0-.184-.583,40.26,40.26,0,0,1-11.427-8.949l-.033-.037.02-.046c.375-.881.792-1.763,1.241-2.62l.057-.108.075.1a33.106,33.106,0,0,0,7.7,7.137,1.2,1.2,0,0,0,.665.2,1.2,1.2,0,0,0,1-.534,1.191,1.191,0,0,0,.179-.9,1.191,1.191,0,0,0-.51-.763,30.7,30.7,0,0,1-7.776-7.468l-.031-.043.028-.045c.285-.461.6-.945.962-1.479l.068-.1.064.1a25.794,25.794,0,0,0,9.759,9.045.441.441,0,0,0,.584-.181.428.428,0,0,0,.031-.33.431.431,0,0,0-.212-.255,25.225,25.225,0,0,1-9.658-9.111l-.027-.045.03-.042c.514-.717,1.062-1.435,1.627-2.133l.066-.082.06.087a24.338,24.338,0,0,0,7,6.745,1.2,1.2,0,0,0,.639.185,1.194,1.194,0,0,0,1.015-.56,1.19,1.19,0,0,0,.156-.9,1.192,1.192,0,0,0-.53-.75,21.844,21.844,0,0,1-6.686-6.65l-.033-.051.04-.045a62.469,62.469,0,0,1,5.689-5.53l.038-.033.046.021a5.837,5.837,0,0,0,1.581.471l.055.008.011.055a1.072,1.072,0,0,0,.088.277A157.149,157.149,0,0,1,2236.4-1906.6l.008.086h-98.377a1.184,1.184,0,0,0-.378.067l-.089.03-.014-.092a87.154,87.154,0,0,1-1.275-14.877,86.7,86.7,0,0,1,32.913-68.185,1.18,1.18,0,0,0,.445-.8,1.19,1.19,0,0,0-.253-.886,1.193,1.193,0,0,0-.8-.445A1.222,1.222,0,0,0,2168.439-1991.706Zm54.909,157.4a86.647,86.647,0,0,1-46.743-13.641l-.256-.164.3.014c1.641.1,3.116.145,4.51.145a43.449,43.449,0,0,0,11.338-1.339c7.547-2.024,13.645-6.792,16.311-12.756,1.7-3.792,2.048-7.923,2.389-11.918a62.357,62.357,0,0,1,.81-6.677,30.6,30.6,0,0,1,23.99-23.471h.618v.079a162.5,162.5,0,0,1-.6,31.523l0,.017c0,.013-.007.026-.011.039a.233.233,0,0,0-.009.034.748.748,0,0,0-.007.107l-.007.088a157.162,157.162,0,0,1-9.26,37.808l-.019.049-.052,0C2225.552-1834.326,2224.443-1834.306,2223.348-1834.306Zm-46.408-13.615a86.5,86.5,0,0,0,46.408,13.457c1.076,0,2.165-.02,3.238-.059a157.042,157.042,0,0,0,9.233-37.714l.005-.08a.949.949,0,0,1,.009-.128.413.413,0,0,1,.014-.055.256.256,0,0,0,.008-.027,162.39,162.39,0,0,0,.6-31.426h-.452a30.439,30.439,0,0,0-23.848,23.344,62.287,62.287,0,0,0-.807,6.654c-.342,4.014-.7,8.158-2.4,11.975-2.685,6.007-8.821,10.808-16.414,12.844a43.6,43.6,0,0,1-11.379,1.345C2179.845-1847.793,2178.463-1847.835,2176.94-1847.921Zm52.372,13.414.043-.115c1.5-3.987,2.842-8.083,4-12.175l.026-.094.089.036a13.143,13.143,0,0,0,6.058,1.465,13.191,13.191,0,0,0,4.991-.977l.129-.053-.022.146c-.617,3.285-1.345,6.594-2.164,9.834l-.012.047-.048.01a86.775,86.775,0,0,1-12.965,1.869Zm4.168-12.164c-1.142,4.035-2.464,8.065-3.934,11.989a86.623,86.623,0,0,0,12.772-1.846c.8-3.176,1.516-6.419,2.125-9.64a13.376,13.376,0,0,1-4.917.934A13.311,13.311,0,0,1,2233.48-1846.671Zm11.592,9.654.031-.128a173.719,173.719,0,0,0,4.779-37.146v-.019l.009-.024a1.2,1.2,0,0,0,.019-1.078l-.008-.017v-.019a176.763,176.763,0,0,0-1.135-22.827c-.214-1.867-.47-3.8-.762-5.745v-.079l.078-.013h30.251l.025.069a.629.629,0,0,0,.216.291.652.652,0,0,0,.4.137.678.678,0,0,0,.536-.266c.052-.068.1-.135.161-.2l.023-.035.038.006h7.979l0,.1h0a1.652,1.652,0,0,0-.008.186l.1.1-.166.018c-7.766.827-13.49,3.5-17.5,8.181a22.378,22.378,0,0,0-4.444,8.306.607.607,0,0,0-.049.165,22.108,22.108,0,0,0-.827,6.516.671.671,0,0,0,.667.649h.021a.659.659,0,0,0,.465-.207.668.668,0,0,0,.182-.479,21.451,21.451,0,0,1,.067-2.156l.03-.381.124.361a13.377,13.377,0,0,0,1.291,2.725.664.664,0,0,0,.567.316.67.67,0,0,0,.357-.1.674.674,0,0,0,.21-.924,11.993,11.993,0,0,1-1.817-6.11v-.011l0-.011c.061-.223.132-.459.226-.741l.071-.214.078.212a28.6,28.6,0,0,0,3.284,6.37.212.212,0,0,0,.3.057.223.223,0,0,0,.056-.306,28.2,28.2,0,0,1-3.476-6.963l-.009-.027.01-.026a21.3,21.3,0,0,1,1.027-2.289l.115-.219.033.245a11.324,11.324,0,0,0,1.929,4.977.665.665,0,0,0,.544.284.66.66,0,0,0,.383-.123.668.668,0,0,0,.166-.929,10.018,10.018,0,0,1-1.763-6.536l0-.021.012-.017c.3-.428.625-.851.965-1.258l.108-.13.03.166a25.55,25.55,0,0,0,2.911,8.009.207.207,0,0,0,.3.083.213.213,0,0,0,.1-.13.221.221,0,0,0-.021-.171,25.207,25.207,0,0,1-2.935-8.352l-.006-.037.025-.028c.442-.495.884-.945,1.35-1.376l.116-.108.016.158a21.865,21.865,0,0,0,1.34,5.681.657.657,0,0,0,.622.43.729.729,0,0,0,.24-.042.675.675,0,0,0,.387-.864,20.664,20.664,0,0,1-1.335-6.365l0-.041.032-.025c.269-.208.543-.406.838-.606l.105-.072.017.126a24.085,24.085,0,0,0,2.554,7.962.221.221,0,0,0,.3.091.223.223,0,0,0,.091-.3,23.493,23.493,0,0,1-2.54-8.1l-.006-.049.042-.027c.444-.285.925-.564,1.468-.852l.108-.057.008.122a19.394,19.394,0,0,0,1.34,5.974.669.669,0,0,0,.622.421.676.676,0,0,0,.248-.046.676.676,0,0,0,.374-.87,17.929,17.929,0,0,1-1.273-6.184v-.053l.049-.021c.313-.138.64-.268.957-.394l.113-.045,0,.121a14.991,14.991,0,0,0,1.694,7.575.221.221,0,0,0,.3.09.223.223,0,0,0,.091-.3,14.6,14.6,0,0,1-1.63-7.6l0-.052.049-.017c.54-.193,1.028-.353,1.493-.487l.1-.029v.105a14.1,14.1,0,0,0,1.129,5.548.671.671,0,0,0,.618.407.65.65,0,0,0,.259-.055.67.67,0,0,0,.353-.878,12.783,12.783,0,0,1-1.019-5.429l0-.06.058-.014a36.763,36.763,0,0,1,4.787-.8l.15-.015-.073.132a98.6,98.6,0,0,0-5.35,11.4l-.011.02a.664.664,0,0,0-.137.366l-.005.023a102.987,102.987,0,0,0-6.367,25.637,103.307,103.307,0,0,0-.659,13.23v.04l-.032.024a85.718,85.718,0,0,1-30.231,14.5Zm4.968-37.26a173.956,173.956,0,0,1-4.752,37.042,85.547,85.547,0,0,0,30.016-14.412,103.437,103.437,0,0,1,.661-13.21,103.123,103.123,0,0,1,6.373-25.666.822.822,0,0,1,.162-.431,98.849,98.849,0,0,1,5.281-11.271,36.535,36.535,0,0,0-4.557.766,12.624,12.624,0,0,0,1.008,5.3.828.828,0,0,1-.435,1.086.8.8,0,0,1-.323.068.829.829,0,0,1-.763-.5,14.261,14.261,0,0,1-1.142-5.5c-.417.123-.855.267-1.333.437a14.44,14.44,0,0,0,1.615,7.465.382.382,0,0,1-.155.51.386.386,0,0,1-.512-.157,15.141,15.141,0,0,1-1.716-7.532c-.265.105-.534.213-.792.327a17.766,17.766,0,0,0,1.261,6.077.835.835,0,0,1-.464,1.074.838.838,0,0,1-.305.057.826.826,0,0,1-.769-.52,19.549,19.549,0,0,1-1.343-5.9c-.479.257-.908.507-1.307.761a23.339,23.339,0,0,0,2.517,8,.381.381,0,0,1-.155.511.364.364,0,0,1-.181.045.367.367,0,0,1-.331-.2,24.24,24.24,0,0,1-2.552-7.886c-.241.166-.469.332-.692.5a20.523,20.523,0,0,0,1.323,6.276.833.833,0,0,1-.48,1.068.894.894,0,0,1-.294.051.813.813,0,0,1-.77-.532,22.009,22.009,0,0,1-1.333-5.564c-.412.386-.805.79-1.2,1.229a25.052,25.052,0,0,0,2.91,8.262.378.378,0,0,1,.036.292.371.371,0,0,1-.179.226.37.37,0,0,1-.51-.142,25.707,25.707,0,0,1-2.9-7.893c-.294.358-.575.728-.838,1.1a9.857,9.857,0,0,0,1.737,6.411.826.826,0,0,1-.2,1.149.818.818,0,0,1-.475.152.823.823,0,0,1-.673-.351,11.457,11.457,0,0,1-1.921-4.8,21.351,21.351,0,0,0-.9,2.028,28.04,28.04,0,0,0,3.448,6.9.382.382,0,0,1-.1.524.377.377,0,0,1-.526-.1,28.729,28.729,0,0,1-3.222-6.19c-.059.183-.108.348-.151.506a11.837,11.837,0,0,0,1.793,6.019.833.833,0,0,1-.26,1.142.83.83,0,0,1-.441.125.822.822,0,0,1-.7-.39,13.524,13.524,0,0,1-1.18-2.4c-.039.614-.052,1.2-.04,1.766a.824.824,0,0,1-.225.591.816.816,0,0,1-.578.257h-.022a.83.83,0,0,1-.825-.8,22.237,22.237,0,0,1,.831-6.554.655.655,0,0,1,.057-.188,22.5,22.5,0,0,1,4.47-8.352c4.024-4.695,9.758-7.386,17.527-8.227,0-.031,0-.061,0-.092h-7.777c-.045.054-.089.112-.133.17a.837.837,0,0,1-.661.327.822.822,0,0,1-.5-.17.8.8,0,0,1-.253-.327h-30.051c.286,1.91.538,3.818.75,5.661a176.915,176.915,0,0,1,1.136,22.829A1.358,1.358,0,0,1,2250.04-1874.277Zm-10.52,26.5a10.6,10.6,0,0,1-5.432-1.468l-.051-.031.015-.057a161.815,161.815,0,0,0,4.17-21.485l.009-.075.075.006c.451.036.906.054,1.353.054a17.474,17.474,0,0,0,7.73-1.818l.118-.059,0,.132a172.5,172.5,0,0,1-2.318,23.162l-.008.043-.041.017a1.184,1.184,0,0,0-.18.086A10.415,10.415,0,0,1,2239.52-1847.778Zm-5.3-1.573a10.558,10.558,0,0,0,10.655-.054,1.243,1.243,0,0,1,.162-.081,172.308,172.308,0,0,0,2.3-22.966,17.634,17.634,0,0,1-7.681,1.776c-.426,0-.86-.016-1.29-.049A161.905,161.905,0,0,1,2234.22-1849.351Zm-53.059-1c-2.961,0-5.913-.218-8.785-.493l-.028,0-.022-.018c-5.934-4.824-13.583-11.532-20.114-20.663a88.09,88.09,0,0,1-14.2-32.49l-.009-.087.086-.011H2228l-.308.15a34.626,34.626,0,0,0-11.238,8.748,30.948,30.948,0,0,0-6.809,14.112c-.045.227-.7,5.211-.846,6.93-.754,8.861-2.683,17.9-16.926,22.565A41.3,41.3,0,0,1,2181.161-1850.348Zm-8.748-.649c6.346.607,13.089.934,19.419-.763,14.148-4.631,16.064-13.618,16.814-22.427.146-1.722.8-6.719.848-6.947a31.1,31.1,0,0,1,6.843-14.183,34.783,34.783,0,0,1,10.986-8.638h-89.132a87.889,87.889,0,0,0,14.151,32.338A106.98,106.98,0,0,0,2172.408-1851Zm104.338-1.56v-.161a102.447,102.447,0,0,1,.609-11.459l.012-.113.1.051a6.843,6.843,0,0,0,3.058.723,6.8,6.8,0,0,0,.96-.071l.093-.013,0,.094c-.063,2.335-.048,4.627.046,6.811l0,.037-.028.025c-1.514,1.372-3.1,2.71-4.725,3.977Zm.753-11.491a102.292,102.292,0,0,0-.6,11.167c1.564-1.227,3.1-2.52,4.561-3.845-.091-2.148-.107-4.4-.047-6.692a6.931,6.931,0,0,1-.89.06A7,7,0,0,1,2277.5-1864.048Zm3.026-.81a5.446,5.446,0,0,1-2.78-.752.44.44,0,0,0-.144-.063l-.066-.018.009-.068a101.364,101.364,0,0,1,2.109-11.449l.03-.121.1.078a4.7,4.7,0,0,0,2.9,1.046h.092l-.015.091a97.488,97.488,0,0,0-1.129,11.083l0,.062-.061.012A5.488,5.488,0,0,1,2280.531-1864.857Zm-2.816-.947a.529.529,0,0,1,.122.063,5.336,5.336,0,0,0,3.637.643,97.558,97.558,0,0,1,1.114-10.949,4.86,4.86,0,0,1-2.806-1A101.207,101.207,0,0,0,2277.714-1865.8Zm-38.049-7.431q-.537,0-1.074-.039l-.082-.006.009-.081a165.238,165.238,0,0,0,.92-22.566l0-.1.095.016a10.157,10.157,0,0,0,1.723.15,11.1,11.1,0,0,0,5.177-1.335l.1-.053.014.12a174.407,174.407,0,0,1,1.023,21.586v.043l-.037.028A14.984,14.984,0,0,1,2239.666-1873.235Zm-.98-.191a14.821,14.821,0,0,0,8.728-2.154A174.289,174.289,0,0,0,2246.4-1897a11.224,11.224,0,0,1-5.147,1.3,10.3,10.3,0,0,1-1.654-.136A165.431,165.431,0,0,1,2238.685-1873.427Zm44.061-4.112a3.358,3.358,0,0,1-2.593-1.227.2.2,0,0,0-.026-.027l-.056-.054.011-.044a101.305,101.305,0,0,1,3.3-10.251l.037-.1.084.062a4.222,4.222,0,0,0,1.973.8l.092.012-.027.089a94.167,94.167,0,0,0-2.529,10.669l-.011.062-.062,0C2282.873-1877.541,2282.809-1877.539,2282.746-1877.539Zm-2.5-1.358a.28.28,0,0,1,.031.034,3.2,3.2,0,0,0,2.585,1.163,94.365,94.365,0,0,1,2.5-10.536,4.384,4.384,0,0,1-1.871-.755A101.149,101.149,0,0,0,2280.247-1878.9Zm5.722-10.8h-.058a2.8,2.8,0,0,1-1.948-.837l-.036-.037.019-.047a98.872,98.872,0,0,1,4.8-10.241l.023-.044.05,0a.632.632,0,0,0,.3-.059.246.246,0,0,0,.034-.014l.041-.021.038.025a3.369,3.369,0,0,0,.855.41l.086.027-.038.082a90.6,90.6,0,0,0-4.149,10.7Zm-1.857-.911a2.645,2.645,0,0,0,1.742.752,90.749,90.749,0,0,1,4.1-10.581,3.537,3.537,0,0,1-.773-.378h0a.765.765,0,0,1-.316.071A98.746,98.746,0,0,0,2284.113-1890.606Zm-42.834-7.655a7.814,7.814,0,0,1-1.876-.23l-.058-.014,0-.059c-.093-2.239-.234-4.47-.419-6.632l0-.032c0-.014,0-.027,0-.041a.333.333,0,0,0,0-.042,1.177,1.177,0,0,0-.04-.292l0-.017c-.346-4.039-.84-8.056-1.467-11.941l-.038-.1.115.01a8.1,8.1,0,0,0,4.983-1.8l.1-.078.031.125a173.406,173.406,0,0,1,3.617,19.57l.008.066-.064.02a1.187,1.187,0,0,0-.276.117A8.918,8.918,0,0,1,2241.278-1898.261Zm-1.781-.37a8.255,8.255,0,0,0,6.314-1.145,1.263,1.263,0,0,1,.249-.113,173.266,173.266,0,0,0-3.577-19.372,8.257,8.257,0,0,1-4.892,1.761c.621,3.862,1.111,7.853,1.454,11.865a1.29,1.29,0,0,1,.043.323.454.454,0,0,1-.006.064c0,.01,0,.02,0,.031C2239.264-1903.065,2239.4-1900.852,2239.5-1898.63Zm48.039-7.881h-5.542l.167-.14a17.283,17.283,0,0,1,3.276-2.162l.052-.027.041.043c.635.671,1.257,1.376,1.9,2.156Zm-5.105-.158h4.77c-.589-.71-1.162-1.358-1.745-1.976A17.135,17.135,0,0,0,2282.431-1906.669Zm-2.391.158h-4.092l.113-.13a19.907,19.907,0,0,1,6.489-4.949l.046-.022.039.033c.593.508,1.2,1.069,1.809,1.666l.076.075-.094.051a18.887,18.887,0,0,0-4.363,3.253Zm-3.746-.158h3.681a19.037,19.037,0,0,1,4.282-3.206c-.566-.553-1.133-1.074-1.686-1.55A19.761,19.761,0,0,0,2276.293-1906.669Zm-38.908-13.385q-.16,0-.32-.01l-.057,0-.015-.055a162.289,162.289,0,0,0-4.321-18.257v0l-.028-.09.094-.012a7.234,7.234,0,0,0,3.391-1.373l.083-.061.038.1a171.968,171.968,0,0,1,5.628,17.51l.006.006v.015l.017.034-.007.007.014.051h-.064l-.013.013a.642.642,0,0,0-.06.062A5.7,5.7,0,0,1,2237.385-1920.054Zm-.249-.164a5.538,5.538,0,0,0,4.509-2,.791.791,0,0,1,.072-.076,171.877,171.877,0,0,0-5.58-17.371,7.392,7.392,0,0,1-3.289,1.329A162.347,162.347,0,0,1,2237.136-1920.218Zm-5.223-20.623-.018-.056a154.387,154.387,0,0,0-7.105-18.311l-.038-.082.086-.027a5.851,5.851,0,0,0,1.472-.7l.036-.024.1.045a1.181,1.181,0,0,0,.555.1l.05,0,.024.044a167.7,167.7,0,0,1,8.2,17.518l.015.046-.032.04a4.711,4.711,0,0,1-3.282,1.412Zm-6.942-18.352a154.509,154.509,0,0,1,7.057,18.192,4.553,4.553,0,0,0,3.076-1.327,167.584,167.584,0,0,0-8.147-17.412,1.352,1.352,0,0,1-.578-.116l-.02-.009A6.011,6.011,0,0,1,2224.971-1959.193Z" transform="translate(-2133.718 2035.063)" fill="#fff"/>
  </g>
  <g id="Grupo_1642" data-name="Grupo 1642" transform="translate(158.365 58.631)">
    <path id="Trazado_6573" data-name="Trazado 6573" d="M3136.462-1663.738a1.278,1.278,0,0,0-.234,1.793,86.554,86.554,0,0,1,17.681,45.53,1.279,1.279,0,0,0,1.272,1.17c.037,0,.073,0,.11,0a1.279,1.279,0,0,0,1.166-1.382,89.108,89.108,0,0,0-18.2-46.872A1.278,1.278,0,0,0,3136.462-1663.738Z" transform="translate(-3135.963 1664.003)" fill="#fff"/>
  </g>
  <g id="Grupo_1643" data-name="Grupo 1643" transform="translate(116.83 28.823)">
    <path id="Trazado_6574" data-name="Trazado 6574" d="M2873.167-1851.786a1.279,1.279,0,0,0,.8,1.623,86.7,86.7,0,0,1,20.915,10.462,1.272,1.272,0,0,0,.719.222,1.276,1.276,0,0,0,1.057-.558,1.278,1.278,0,0,0-.335-1.777,89.244,89.244,0,0,0-21.532-10.771A1.279,1.279,0,0,0,2873.167-1851.786Z" transform="translate(-2873.098 1852.652)" fill="#fff"/>
  </g>
  <g id="Grupo_1644" data-name="Grupo 1644" transform="translate(58.466 24.129)">
    <path id="Trazado_6575" data-name="Trazado 6575" d="M2505.011-1874.613a1.277,1.277,0,0,0,.433-.076,86.745,86.745,0,0,1,29.454-5.112h.445a1.279,1.279,0,0,0,1.279-1.272,1.278,1.278,0,0,0-1.272-1.285h-.452a89.3,89.3,0,0,0-30.32,5.263,1.279,1.279,0,0,0-.77,1.636A1.279,1.279,0,0,0,2505.011-1874.613Z" transform="translate(-2503.733 1882.358)" fill="#fff"/>
  </g>
  <g id="Grupo_1645" data-name="Grupo 1645" transform="translate(7.524 100.25)">
    <path id="Trazado_6576" data-name="Trazado 6576" d="M2181.334-1369.676l.739-1.759c.028-.067,2.847-6.765,6.143-13.583,6.851-14.173,9.081-15.077,9.92-15.417a2.074,2.074,0,0,1,1.633-.022c1.925.821,18.965,7.176,38.454,13.565,17.742,5.815,41.746,13.031,55.343,14.381l-.121,2.522Zm17.653-28.368c-.513.3-2.711,2.184-8.417,13.966-2.286,4.72-4.351,9.408-5.413,11.864l94-.262C2249.473-1379.188,2203.619-1396.158,2198.987-1398.044Z" transform="translate(-2181.334 1400.612)" fill="#fff"/>
  </g>
</svg>
